<svg height="1125pt" preserveAspectRatio="xMidYMid meet" viewBox="0 0 825 1125" width="825pt" xmlns="http://www.w3.org/2000/svg"><g transform="matrix(.1 0 0 -.1 0 1125)"><path d="m6238 8923c-19-3-30-13-37-34-6-16-19-43-31-58-11-16-20-41-20-57 0-15-11-47-25-71l-26-43-27 17c-15 10-31 23-35 31-5 7-26 20-47 28-21 9-41 22-44 30-3 9-10 13-15 10s-25 1-44 9c-48 20-122 36-171 36-87 1-231-22-304-50-42-15-117-38-167-50-49-12-100-29-112-37s-29-14-38-14c-17 0-150-114-211-181-21-24-64-69-94-100-101-104-128-136-176-205-44-65-111-153-124-164-3-3-27-32-52-65-26-33-82-97-126-143-53-55-79-88-76-100 3-10-9-30-31-50-19-19-35-40-35-47 0-8-6-18-14-22-14-8-66-78-66-89 0-10-95-94-107-94-6 0-22-15-35-32-12-18-31-41-40-50-10-10-18-22-18-27 0-4-38-47-85-95-57-59-85-95-85-111 0-21-3-23-52-20-28 1-64-2-80-7-26-9-33-6-71 29-48 45-149 106-189 116-16 4-44 1-70-9-24-8-53-18-65-21s-28-11-34-19c-16-20-32-17-61 9-37 33-48 59-52 132-3 36-10 99-17 141-11 61-16 73-29 68-8-4-57-9-109-10-100-3-198-20-219-37-7-5-12-28-12-51s-1-79-2-126c-5-149 24-249 94-330 56-65 118-98 252-138l29-8-39-24c-117-72-147-79-231-55-40 11-78 26-85 33s-19 12-28 12-20 4-25 9c-6 5-31 20-57 34l-47 25-14-22c-8-12-18-40-22-64-4-23-11-44-16-47-5-4-25-40-45-81-19-40-39-74-44-74-14 0-18-50-4-61 8-6 14-22 14-35 0-15 6-24 15-24 8 0 15-5 15-10 0-20 45-79 65-85 79-26 188-29 301-10 54 9 102 19 106 21 4 3 6-16 4-41-2-34-9-53-29-73-34-34-108-119-172-197-27-33-62-71-77-84s-28-29-28-36c0-14-180-197-266-271-31-27-71-62-88-78-17-15-43-34-57-42-15-7-31-26-37-42-5-16-31-47-56-68s-49-46-52-56-10-18-16-18c-10 0-37-21-123-95-87-75-121-101-157-120-21-11-38-22-38-26 0-3-25-26-56-50-63-49-210-193-247-242-13-18-38-45-54-62-35-36-63-79-63-98 0-8-7-20-15-27s-15-22-15-34-5-27-12-34c-6-6-13-20-14-29-40-264-44-323-29-493 20-238 20-234 80-375 8-16 17-48 21-70 10-55 89-236 107-243 4-2 7-8 7-14 0-20 52-65 70-61 12 3 20-3 25-19 5-12 25-41 45-63 21-22 69-73 107-113 37-40 84-83 103-95s58-45 87-72c41-42 66-56 125-75 40-13 82-27 93-31 11-5 72-17 135-28 110-19 211-19 235-1 6 5 41 11 78 15 39 4 88 18 115 31 26 13 51 24 55 24 5 0 21 9 36 19 22 16 43 20 109 19 63-1 86 3 100 15 10 10 24 17 30 17s27 14 45 30c19 17 38 30 43 30 4 0 24 11 43 23 125 82 156 106 187 139 19 21 36 38 39 38s22 16 42 36c21 20 48 43 61 51 12 8 22 18 22 22s24 32 53 62c61 64 124 139 141 167 26 45 64 98 80 111 9 7 16 21 16 30 0 10 14 30 31 47 35 33 109 137 109 153 0 6 4 11 10 11 5 0 17 15 26 33 9 17 38 62 64 98s51 76 55 90c4 13 20 38 35 54 15 17 35 46 44 66 10 20 33 55 52 77s34 42 34 45c0 14 123 185 186 259 41 47 74 93 74 100 0 17 31 48 47 48 11 0 73 116 73 136 0 5 22 24 49 42 55 35 71 62 107 173 19 62 32 84 71 121 27 26 57 58 68 72s29 37 41 50 30 44 40 69c17 41 21 45 45 40 34-6 49 18 54 84 3 47 15 63 52 63 14 0 35 17 60 51 21 28 66 80 100 117 35 36 65 73 68 81 3 9 16 23 29 31s56 51 96 95c41 44 86 88 102 98 15 11 28 22 28 26s60 68 133 142c72 74 169 172 214 219 46 47 102 102 125 122 24 20 84 76 133 124 50 47 113 101 142 120s56 40 60 47 18 20 29 28c12 8 38 34 58 59 21 25 45 54 53 65 9 11 26 33 37 50 12 17 49 59 84 95 60 63 112 146 112 181 0 9 6 22 14 28 7 6 21 35 30 65 10 30 31 80 47 111 20 39 31 78 35 119 5 74 28 187 55 279 24 79 19 127-13 127-17 0-20 5-15 30 4 16 2 32-3 35-6 3-10 38-10 77 0 88-15 143-52 186-15 18-28 37-28 43 0 12-56 82-107 134-20 22-30 40-27 52 4 15-3 22-35 33-22 7-59 32-83 56s-52 44-62 44c-16 0-66 40-173 141-12 12-26 18-32 15-5-4-12-2-16 4-3 5-9 9-13 9-4-1-19-4-34-6z"/><g fill="#eee"><path d="m6321 8783c20-21 50-57 68-80 18-24 37-43 41-43 5 0 30-15 56-32 25-18 58-40 73-49 14-8 35-34 46-56 11-23 32-49 47-59s37-36 50-57 33-54 45-73 21-34 19-34c-1 0 4-30 12-67 17-74 22-275 10-429-3-50-3-95 2-100 10-10-40-130-79-188-32-48-36-55-50-86-7-14-21-42-32-64-19-36-21-37-39-21-20 18-40 13-40-9 0-8 6-19 14-25 13-11 12-17-5-45-11-18-28-41-39-51s-20-24-20-32c0-7-3-13-8-13-10 0-204-193-322-320-154-167-241-253-310-310-117-95-142-120-136-137 8-21-158-180-196-188-15-4-28-10-28-14s-28-36-62-73c-35-36-83-88-108-116-60-68-199-206-211-210-5-2-9 4-9 14s-4 31-9 48c-32 105-41 147-36 156 3 5 1 19-5 30-6 12-15 44-20 73-4 29-25 83-48 122-22 39-48 93-57 120-10 28-24 57-31 65-6 8-15 26-19 39-11 35-65 125-81 134-8 4-14 13-14 18 0 6 4 7 10 4 16-10 69 36 115 100 23 33 66 83 94 112s51 59 51 67c0 9 9 20 19 25 10 6 31 32 47 58 15 27 30 50 33 53 10 8 61 89 61 97 0 4 9 16 19 27 11 12 40 64 66 116 25 52 51 104 57 115s14 27 18 35 17 35 29 60c147 293 158 310 202 310 21 0 40-10 61-30 33-33 59-38 82-14 25 25 29 59 22 183-7 128-12 110 75 267 75 135 174 265 195 257 8-3 14 2 14 11s6 19 13 22c7 2 28 34 47 70s54 88 76 116c23 28 45 64 48 81 6 30 23 57 35 57 4 0 23-17 42-37z"/><path d="m5719 8709c36-12 75-25 86-30 11-4 37-13 57-19s42-18 48-26c7-7 16-14 21-14 17 0 79-45 79-57 0-7-4-13-10-13-16 0-110-97-110-114 0-15-75-146-90-156-4-3-19-26-33-51-15-25-43-62-63-82l-37-37 11-107c6-60 14-120 18-136 6-24 4-26-12-21-11 4-37 20-58 36l-40 28-21-20c-12-11-27-20-33-20-7 0-22-21-34-47-12-27-33-66-47-88-35-55-61-107-61-120 0-6-18-36-40-65s-40-59-40-66-16-32-36-56c-20-23-42-54-48-68-5-14-24-41-41-62-16-20-39-54-50-75-10-21-31-54-46-73s-37-54-49-77-38-61-59-85c-49-56-141-195-141-214 0-8-4-14-9-14s-26-16-47-35c-20-19-39-35-41-35-3 0-27 20-55 44s-64 47-81 50-60 20-96 38c-36 17-84 35-106 39-84 17-151 36-185 51-19 9-42 19-50 22-8 4-28 14-45 24-16 11-55 27-85 36-30 10-74 26-97 37-24 10-54 19-67 19-29 0-44 18-22 26 9 3 16 11 16 16 0 11 8 20 93 111 31 33 61 73 68 90 7 18 28 50 47 72 18 22 50 60 70 84s51 58 68 75c17 18 49 56 72 84 50 64 159 187 231 261 30 31 70 79 89 106 40 57 81 109 115 145 12 14 35 43 50 65 14 22 43 54 63 70 20 17 79 73 132 125 52 52 106 102 119 111s32 31 41 50c13 25 25 35 46 37 16 2 46 15 67 28 50 31 69 31 69 0 0-16 7-27 21-31 31-10 47 10 26 33-20 22-22 36-4 29 7-3 18 3 24 12 6 10 31 23 55 29 103 26 113 25 82-5-18-19-5-37 22-31 13 3 18 12 17 29-1 21 6 28 40 42 54 20 49 20 126-4z"/><path d="m2968 7415c3-3 8-47 10-98 2-50 10-106 18-124 8-17 14-34 14-38s18-25 40-46c39-38 40-40 26-67-8-15-20-53-27-84-16-68-21-69-122-38-78 24-116 54-152 118-58 104-79 289-39 346 21 31 109 53 172 45 30-4 57-10 60-14z"/><path d="m3353 7123c45-25 147-103 147-112 0-4-13-32-30-62-16-30-30-62-30-72 0-11-12-22-30-28-16-6-30-15-30-20s-13-9-29-9c-20 0-41-12-72-42-55-54-91-57-127-12-27 34-35 68-36 151 0 39 6 60 27 92 15 22 27 45 27 49 0 5 12 18 26 28s36 27 48 36c27 22 70 23 109 1z"/><path d="m3795 7001c90-10 145-25 220-60 22-11 48-22 58-25 64-21-65-43-187-32-39 3-135 9-213 13-128 5-143 8-143 24 0 44 107 106 160 93 8-2 56-8 105-13z"/><path d="m3732 6844c46-14 245-29 298-21 62 8 320-1 335-13 6-4 30-10 55-13 61-8 205-80 218-109 2-5 12-8 22-8 21 0 85-68 95-101 4-13 17-35 29-49 37-45 206-399 206-433 0-7 3-17 6-20 4-4 9-33 10-64 4-60 6-77 21-153 11-60-8-213-28-226-5-3-9 8-9 25 0 16-4 33-10 36-5 3-10 17-10 30s-4 26-9 30c-5 3-13 20-16 38-8 34-32 83-52 105-7 7-13 22-13 32s-5 22-10 25c-6 4-20 25-31 48-12 23-25 44-29 47s-13 16-20 30-21 34-31 45-27 29-36 41c-10 11-36 33-58 47-71 48-90 62-107 82-9 12-40 33-70 48s-86 53-125 85c-86 69-119 93-147 109-60 33-243 109-281 117-5 1-15 4-20 8-6 3-28 10-50 14-39 7-85 25-175 67-66 30-79 35-143 48-55 12-57 13-44 33 8 11 25 23 38 26 31 8 162 4 191-6z"/><path d="m3118 6696c16-25 21-41 14-44-22-7-103-79-153-135-28-31-56-57-62-57s-18-6-26-13c-27-23-122-48-201-53-144-10-192 10-219 94-12 35-12 49-1 85 29 91 90 178 112 160 7-5 51-30 98-55 77-40 91-44 150-43 52 1 74 7 108 29 23 14 42 31 42 36s15 16 34 24c18 8 37 19 41 25 9 16 30-2 63-53z"/><path d="m3555 6733c22-8 58-18 80-23s72-24 110-43c39-19 97-43 130-52 66-19 137-46 145-55 3-3 16-7 29-7 13-1 31-8 40-16s24-17 35-21c13-4 17-13 12-29-7-28 0-38 47-76 86-68 169-231 117-231-5 0-22 18-36 40-24 36-111 110-129 110-4 0-39 28-79 63-81 73-182 138-258 168-31 12-107 27-186 35-126 14-136 14-200-4-37-11-74-23-82-26-21-8-65 74-56 106 6 24 71 72 85 63 5-2 14 2 21 10 15 18 112 11 175-12z"/><path d="m3585 6536c17-2 63-8 104-11 41-4 89-16 107-26 63-35 119-72 122-80 2-5 9-9 16-9s35-20 62-45c26-25 53-45 59-45 7 0 20-9 30-20s21-20 26-20c4 0 42-37 85-82 44-45 104-107 134-137 87-89 140-151 140-166 0-7 18-35 40-61 22-27 40-53 40-58s8-19 18-30c24-27 56-115 88-241 14-55 30-116 35-135 19-65 19-91 0-145-10-29-25-86-32-126-11-60-19-78-49-111-35-36-70-50-70-28 0 6-11 20-25 32-21 18-24 27-19 67 4 25 12 68 20 95 32 112 7 319-42 351-13 8-24 22-24 31 0 8-12 27-27 42-26 25-53 66-103 155-11 21-27 40-35 44-8 3-15 10-15 17 0 6-15 28-33 48-17 21-45 56-62 77-16 22-34 40-39 41-4 0-36 22-70 48-33 26-74 54-91 62-16 8-41 25-55 37-175 154-265 205-387 223-43 6-103 15-134 20-101 18-224 9-345-26-77-21-85-20-78 19 8 41 48 113 86 153 27 28 34 31 84 29 40-2 59-8 69-21 12-17 17-18 47-6 18 8 64 20 102 28 38 7 72 16 75 20 5 6 72 1 146-10z"/><path d="m4404 6315c32-29 32-31 4-38-21-6-35 5-59 46-16 27 23 22 55-8z"/><path d="m3440 6291c14-5 46-12 71-16 26-3 55-12 65-20 11-8 29-15 42-15 28 0 129-67 194-128 47-43 96-77 131-88 9-4 17-10 17-15s5-9 11-9 29-18 51-39c48-48 47-49-52-146-40-38-85-82-100-97-16-16-32-28-38-28-5 0-15-7-22-15s-21-15-31-15c-11 0-19-7-19-15s-5-24-12-34c-9-15-9-28 0-59 12-41 16-82 7-82-3 0-24 14-47 30-22 17-49 30-58 30-17 0-94-65-197-167-29-29-70-60-90-70-21-9-49-28-63-40-14-13-33-26-42-29-10-3-18-12-18-20s-11-20-25-26-25-15-25-19-19-17-42-27c-24-11-54-31-67-46-14-14-30-26-37-26s-14-4-16-8c-1-5-32-23-68-41-118-60-135-70-152-92-22-26-23-62-3-79 8-7 15-19 15-26s13-20 30-29c51-26 130-113 130-143 0-37 55-72 112-73 100-1 165-29 101-44-53-12-66-29-59-79 4-24 14-50 21-56 8-7 15-20 15-29 0-17 46-91 64-103 6-4 37-8 69-8 31 0 57-4 57-10 0-5-6-10-13-10s-22-8-33-18c-10-10-26-21-35-24-14-6-16-33-16-225 0-161-4-239-16-298-9-44-18-93-21-110-2-16-5-30-6-30s-3-13-5-29c-2-17-13-42-25-57-11-16-20-42-20-60 0-24-13-45-57-92-111-117-248-249-268-258-11-5-27-13-35-18-40-23-165-51-232-51-12 0-31-8-42-19-37-33-88-43-238-48-156-6-204 3-253 46-11 10-42 30-70 45-27 15-72 44-99 64s-56 42-65 47c-21 13-105 91-140 129-14 16-41 44-58 63-18 19-33 39-33 44s-7 12-15 15c-8 4-15 13-15 20 0 8-8 18-17 21-15 6-14 8 7 13 20 5 25 12 25 35 0 25-4 31-27 33-16 2-28-1-28-7s-4-11-10-11c-5 0-10 5-10 10 0 12-41 73-52 78-4 2-12 19-18 38s-16 34-21 34-9 9-9 19c0 25-36 176-45 191-4 6 1 17 11 25 16 11 19 29 20 142 0 70 2 130 3 133 2 3 4 14 5 25 8 63 19 112 28 122 7 8 6 23-1 45-11 32-11 32 89 126 87 82 100 98 100 127 0 18 6 37 13 43 30 25 174 56 264 57 51 0 98 6 103 11 7 7 30 8 63 3 29-4 99-10 157-12 100-5 195-29 225-58 5-5 19-9 31-9 14 0 24-8 27-23 5-16 29-33 89-61 72-34 98-55 191-149 85-86 116-125 146-186 57-113 71-169 71-290 0-88-4-114-21-151-84-175-114-216-219-300-39-32-72-50-89-50-14 0-51-9-81-20s-64-20-75-20-65-16-120-35c-94-33-185-46-185-26 0 5-17 12-37 15-62 11-235 86-230 101 2 5 22 24 45 40 48 35 51 49 17 71-14 9-25 25-25 35 0 11-7 19-15 19s-15 7-15 15c0 12-13 15-56 15-68 0-87 10-119 60-37 58-33 67 28 74 58 8 117 38 117 60 0 19-61 56-94 56-15 0-26 6-26 14s-12 17-26 20c-14 4-43 18-65 33-38 25-38 26-34 77 3 28 7 87 10 130 4 61 9 84 25 101 11 12 20 26 20 31 0 21 64 67 103 76 126 25 160 29 171 17 7-7 7-13 1-15-49-19-69-43-88-104-46-156-45-236 5-332 17-32 47-70 67-85 20-14 50-38 66-54 17-15 95-61 175-102s159-83 175-92c28-17 34-17 65-2 19 8 65 18 102 21 66 6 75 8 181 42 111 35 228 176 213 256-3 18-9 51-13 73-9 55-93 173-148 207-24 15-61 45-82 67s-56 47-78 57c-22 9-70 31-107 50-38 18-94 41-125 50-32 9-62 20-68 24-5 4-23 10-40 13-16 3-66 13-110 22-163 32-388 6-416-47-6-11-21-18-39-18-24 0-33-7-45-32-8-18-24-45-37-61-16-20-19-30-10-39 8-8 5-21-14-53-19-33-27-68-36-151-6-60-8-125-5-144 7-33 11-36 83-60 100-32 114-53 34-52-59 1-68-22-40-107 12-36 29-77 38-90 10-18 12-26 4-29-16-5 2-37 25-47 10-4 45-9 78-11 86-7 90-9 66-39-50-64-32-121 47-150 26-10 53-22 60-28 11-9 62-21 237-57 33-7 81-19 107-26 62-19 76-18 90 6 7 11 23 20 35 20 39 0 232 71 265 97 7 6 36 22 63 37 38 19 73 52 135 128 103 126 129 171 137 240 3 29 12 57 19 61 24 14 5 241-25 312-24 58-51 132-51 142 0 16-70 149-90 171-8 9-37 45-63 79-62 78-146 136-203 138-29 1-53 10-77 28-20 15-42 27-49 27-8 0-18 4-24 8-5 5-38 22-74 38-50 22-82 29-140 31-297 9-458-6-611-58-31-10-63-19-71-19-22 0-63-42-87-89-12-22-26-41-32-41-5 0-12-7-16-16-3-9-22-33-43-53-25-24-42-56-56-98-10-35-22-63-26-63-9 0 2 121 12 135 4 6 10 26 14 45 8 45 61 147 95 185 15 17 45 54 66 84 22 31 52 59 71 67 18 8 55 34 81 58 150 140 333 294 365 309 21 10 41 24 46 33 4 8 85 93 180 189s172 179 172 184 19 24 43 42c23 18 53 47 67 64 14 16 65 71 113 120 252 259 347 360 347 370 0 33 57 61 170 84 53 10 244 5 280-8z"/><path d="m4590 6203c39-32 70-61 70-65s6-8 12-8c15 0 88-77 89-94 0-6 9-24 19-41 33-53 60-105 60-116 0-5 10-31 21-57 51-110 59-137 60-182 1-27 5-53 9-60 9-15-15-98-35-120-8-9-15-24-15-32 0-9-7-21-15-28s-15-16-15-21c0-21-46-78-66-82-25-4-34 22-34 95 0 21-11 60-25 88-14 27-25 55-25 63 0 7-8 31-19 53-10 21-21 56-25 77s-19 59-33 85-33 61-41 77c-9 17-21 35-28 40-7 6-21 25-33 44-15 26-17 39-10 53 8 15 2 31-30 80-23 33-41 64-41 69s-5 17-11 28c-10 15-5 25 32 63 24 26 47 47 52 47 4 1 39-25 77-56z"/><path d="m4187 5827c18-23 44-63 58-89 14-25 32-52 40-58 8-7 15-19 15-27 0-7 7-16 15-19 8-4 15-14 15-24 0-11 5-22 10-25 14-9 44-78 69-162 22-71 25-150 22-554 0-20-9-47-21-61-11-15-20-29-20-33 0-9-92-129-102-133-5-2-8-10-8-17 0-8-13-29-30-47-16-18-30-38-30-46 0-7-7-15-15-18-8-4-15-11-15-17 0-5-17-33-39-61-21-28-46-64-55-81-20-37-81-123-107-151-10-11-19-25-19-30 0-6-13-23-28-40-36-38-67-86-64-100 1-6-7-19-18-29s-20-24-20-32c0-7-9-13-20-13s-20-5-20-11c0-9-84-134-100-149-7-6-70-100-70-103 0-6-104-120-164-181-52-53-57-62-46-79 9-16 9-21-2-28-7-5-17-9-21-9-5 0-27-19-51-42-70-70-127-120-133-115-2 3 7 23 21 46 14 22 26 50 26 63 0 12 8 30 17 40s20 40 24 66c3 26 16 92 27 147 35 170 65 387 63 457l-2 67 40 27c23 15 41 31 41 35 0 5 9 9 19 9 24 0 33 24 25 65-5 30-10 34-52 40-26 4-52 11-57 15-6 5-39 11-74 14-68 5-79 13-100 73-10 28-10 36 3 48 20 21 80 45 109 45 13 0 28 5 35 12 17 17-16 68-46 68-13 0-40 13-60 29-40 31-91 51-128 51-15 0-36 16-61 45-20 25-42 45-48 45-5 0-30 23-54 51l-44 51 52 49c29 27 57 49 61 49 5 0 35 18 66 40 32 22 65 40 75 40s24 6 31 13c7 6 49 39 93 72s82 63 83 68c2 4 16 14 30 21 15 8 45 36 67 63s65 67 97 89c32 21 58 45 58 51 0 20 12 15 47-16 23-20 48-30 84-35 28-4 54-4 58-1 8 9 3 126-8 174-8 37-7 41 26 70 19 17 49 41 66 52 31 21 152 143 192 193 11 14 25 25 30 25 6 0 24-19 42-42z"/><path d="m2130 4300c0-6-12-33-26-61-24-45-25-53-13-77 7-15 19-34 26-42 34-40 60-77 66-92 3-9 28-28 54-42 26-13 75-40 107-60 33-20 70-36 82-36s27-6 33-14c7-8 29-14 50-14s48-5 59-11c12-6 33-9 48-5 14 4 36 1 49-6s30-10 37-6c52 25 96 58 113 84 24 38 41 36 37-4-1-16-2-37-3-48 0-10-13-45-28-78-28-57-62-92-125-125-27-14-31-13-58 7-26 19-33 20-64 10-63-21-173-17-221 8-23 12-66 31-96 42-29 11-70 35-90 54-20 18-49 39-65 45-33 14-101 81-131 131-11 19-21 52-21 72s-4 39-8 42c-12 7 10 119 27 140 7 9 19 16 26 16s18 14 24 30c6 20 17 30 30 30 11 0 23 5 26 10 8 13 55 13 55 0z"/><path d="m2700 3940c0-5-2-10-4-10-3 0-8 5-11 10-3 6-1 10 4 10 6 0 11-4 11-10z"/></g><path d="m6286 8475c-15-40 11-68 40-44 16 13 19 49 5 49-5 0-16 3-24 6s-17-2-21-11z"/><path d="m6578 8368c-19-15-8-58 14-58 29 0 39 16 29 43-12 30-20 33-43 15z"/><path d="m6056 8248c-18-27-12-58 10-58 23 0 34 33 19 59l-12 24z"/><path d="m6266 8185c-33-34-8-68 34-45 14 7 20 19 18 33-4 27-30 33-52 12z"/><path d="m6613 8153c-7-2-13-16-13-29 0-17 6-24 20-24 13 0 20 7 20 20 0 11 0 23 1 27 1 10-13 13-28 6z"/><path d="m6440 8115c-17-20-8-49 16-53 30-4 48 21 34 47-13 25-33 27-50 6z"/><path d="m6716 8004c-7-19 10-44 31-44 18 0 34 43 19 52-19 13-44 9-50-8z"/><path d="m6574 7986c-3-8-4-25-2-38 4-32 42-32 46 0 6 38-32 70-44 38z"/><path d="m6219 7924c-9-11-10-20-3-32 16-25 33-26 43 0 16 43-12 66-40 32z"/><path d="m6400 7906c0-8-3-21-6-30-5-12 0-16 20-16 22 0 26 4 26 30 0 23-4 30-20 30-11 0-20-6-20-14z"/><path d="m5969 7884c-9-11-10-20-2-32 17-27 42-26 49 2 10 43-20 63-47 30z"/><path d="m6694 7885c-9-23 3-45 25-45 23 0 35 28 20 46s-38 18-45-1z"/><path d="m6506 7861c-20-22-18-56 4-56 19 0 38 51 24 65-7 7-16 4-28-9z"/><path d="m6585 7859c-6-19 7-38 26-39 14 0 29 28 23 44-9 23-41 20-49-5z"/><path d="m6714 7755c-9-23 3-45 25-45 27 0 34 15 19 40-15 24-36 26-44 5z"/><path d="m6613 7752c-16-10-5-52 13-52 16 0 37 37 29 50-7 12-25 13-42 2z"/><path d="m6277 7738c-21-11-22-31-3-47 20-16 46-3 46 24s-19 37-43 23z"/><path d="m6362 7728c-17-17-15-47 4-55 23-9 51 23 38 44-14 22-27 26-42 11z"/><path d="m5964 7715c-4-8-4-22 0-30 5-13 9-13 26-3 26 17 26 48 0 48-11 0-23-7-26-15z"/><path d="m6437 7691c-6-24 16-46 39-37s14 50-12 54c-15 2-23-3-27-17z"/><path d="m6648 7685c-3-3-18-8-34-11-38-7-44-12-44-35 0-25 26-35 46-18 9 7 23 14 31 15 27 4 44 25 32 40s-22 17-31 9z"/><path d="m6499 7641c-20-16-22-21-10-35 8-9 24-16 35-14 19 3 24 19 17 61-2 12-18 8-42-12z"/><path d="m5577 7633c-11-10-8-20 8-27 10-4 15 1 15 14 0 20-11 26-23 13z"/><path d="m6700 7621c-14-27-13-48 5-54 18-7 25 3 30 43 4 35-18 42-35 11z"/><path d="m6121 7616c-14-17-4-69 13-63 14 5 21 56 8 69-5 5-14 3-21-6z"/><path d="m6328 7625c-13-13 5-55 24-55 15 0 19 6 16 27-3 25-26 42-40 28z"/><path d="m6433 7594c-4-11 1-22 13-31 16-12 20-12 31 3 6 9 9 22 6 30-7 19-42 18-50-2z"/><path d="m6574 7575c-27-41 6-73 40-40 8 8 21 12 29 9 20-7 27 6 16 33-11 30-65 29-85-2z"/><path d="m6496 7554c-8-21 1-34 25-34 14 0 19 7 19 25 0 29-34 36-44 9z"/><path d="m6247 7544c-11-11-8-52 3-59 17-10 41 16 38 39-3 21-28 33-41 20z"/><path d="m6602 7508c-7-7-12-17-12-24 0-6-10-18-21-26-19-12-20-17-10-36 14-26 39-29 48-4 3 9 12 25 20 34 27 31 4 85-25 56z"/><path d="m6327 7503c-4-3-7-17-7-30 0-20 5-24 23-22 12 2 28 0 35-5 21-13 42 1 42 29 0 18-5 25-19 25-11 0-23-5-27-11-5-8-10-6-16 5-10 17-20 20-31 9z"/><path d="m6476 7497c-21-15-14-57 8-57 19 0 38 26 34 46-4 23-20 27-42 11z"/><path d="m5767 7493c-4-3-7-15-7-25 0-13 8-18 29-18 26 0 41 14 41 41 0 10-53 12-63 2z"/><path d="m5970 7458c0-27 18-41 44-36 22 4 26 2 26-18 0-30 12-36 44-21 37 17 32 51-8 55-16 2-35 10-43 18-18 17-63 19-63 2z"/><path d="m6507 7433c-12-11-7-40 8-53 22-18 38 0 29 34-6 25-23 34-37 19z"/><path d="m6390 7415c-19-23-4-45 30-45 22 0 30 5 30 18 0 37-38 54-60 27z"/><path d="m5482 7390c-18-29-15-40 11-40 46 0 53 19 17 47-13 10-18 8-28-7z"/><path d="m6160 7340c0-22 2-40 4-40s11-3 20-6c11-4 19 3 26 22 10 24 8 30-12 46-33 25-38 23-38-22z"/><path d="m6261 7359c-16-7-22-15-18-29 3-11-3-26-14-36-14-13-16-21-8-35 5-11 16-19 24-19 14 0 31 37 22 47-3 3 6 16 21 28 24 21 25 25 12 38-11 11-22 12-39 6z"/><path d="m6387 7353c-13-13-7-61 9-67 21-8 34 1 34 23 0 20-33 54-43 44z"/><path d="m5888 7333c-21-5-24-36-4-52 21-18 48-3 40 23-8 28-15 33-36 29z"/><path d="m6460 7319c-10-17-9-24 3-37 24-23 47-9 38 24-9 36-27 41-41 13z"/><path d="m5665 7290c-7-11 11-50 23-50 14 0 32 24 32 42 0 20-44 26-55 8z"/><path d="m5782 7258c-17-17-15-45 5-52 23-9 37 8 29 38-7 29-16 32-34 14z"/><path d="m6017 7252c-10-10-17-22-17-26 0-14 71-77 80-71 14 9 12 43-2 47-7 3-11 18-10 36 2 25-2 32-16 32-11 0-26-8-35-18z"/><path d="m6421 7261c-18-12-10-55 12-59 13-3 17 3 17 27 0 33-9 44-29 32z"/><path d="m6296 7252c-10-16 10-67 28-70 14-3 17 3 14 35-2 26-8 39-20 41-9 2-19-1-22-6z"/><path d="m5524 7205c-8-32-4-36 24-28 16 4 22 12 20 27-5 32-36 33-44 1z"/><path d="m6150 7200c0-11 5-30 12-43 6-12 14-29 18-37s16-15 26-15c28 0 29 36 2 78-25 40-58 49-58 17z"/><path d="m6370 7194c-10-11-11-20-3-32 17-27 38-20 38 12 0 34-16 44-35 20z"/><path d="m6272 7178c-17-17-15-45 6-58 12-8 13-13 5-16-19-8-16-32 6-44 15-7 23-6 35 6 20 19 21 43 2 50-8 3-12 13-9 23 6 24-29 55-45 39z"/><path d="m5877 7154c-15-15-7-52 13-57 26-7 47 19 33 41-11 19-35 27-46 16z"/><path d="m5594 7093c-5-19-2-30 12-40 28-20 49 4 35 40-13 35-39 35-47 0z"/><path d="m6110 7105c-16-20-6-45 19-45s32 11 24 38c-6 25-25 28-43 7z"/><path d="m6022 7090c-10-17-9-22 13-36 29-19 32-32 8-41-35-12-54-35-42-50 15-17 38-17 45 2 4 8 10 12 15 9 14-8 39 15 39 36 0 10-9 20-20 23-15 4-20 14-20 41 0 40-18 48-38 16z"/><path d="m5787 7069c-24-14-21-46 4-54 33-11 53 31 26 53-8 7-18 7-30 1z"/><path d="m6182 7043c3-32 44-46 54-19 8 21-13 46-38 46-15 0-19-6-16-27z"/><path d="m5884 7045c-8-20 2-44 21-52 24-8 39 12 31 41-7 29-43 36-52 11z"/><path d="m5391 7022c-16-29-14-32 14-32s31 8 11 35c-13 18-14 18-25-3z"/><path d="m5297 6983c-11-10-8-51 3-58 12-7 33 42 24 56-6 11-18 12-27 2z"/><path d="m6153 6974c-3-8 2-23 11-32 15-15 17-15 32 0 21 21 11 48-16 48-11 0-23-7-27-16z"/><path d="m5633 6934c-14-22-14-27-2-35 29-18 49-10 49 20 0 39-25 47-47 15z"/><path d="m5911 6936c-10-12-8-19 9-36 11-11 18-25 15-29-9-16 7-41 26-41 21 0 26 37 10 68-5 9-12 25-15 35-7 21-29 22-45 3z"/><path d="m5827 6913c-14-4-18-11-14-30 3-17-1-28-14-36-25-16-24-44 2-52 20-7 19-8-8-22-15-8-42-15-60-15-36 0-58-20-49-43 4-12 15-14 48-9 24 4 47 10 53 15 5 5 19 9 31 9 13 0 30 8 39 17 16 16 16 18-2 32-24 20-25 62 0 79 10 8 17 23 15 35-3 22-13 27-41 20z"/><path d="m6060 6909c0-6-8-8-18-5-12 4-26-1-37-14-14-16-15-22-5-35 15-19 39-19 46-1 3 8 15 11 29 8 19-3 27 1 34 19 5 13 7 27 4 32-7 11-53 8-53-4z"/><path d="m5464 6876c-8-21-1-49 13-53 15-5 47 42 38 57s-45 12-51-4z"/><path d="m5697 6853c-10-10-8-41 3-48 20-12 50 6 50 31 0 18-5 24-23 24-13 0-27-3-30-7z"/><path d="m5860 6835c-16-20-6-45 19-45 26 0 34 15 21 40-13 24-23 25-40 5z"/><path d="m5600 6785c-16-19-6-45 19-45 18 0 35 35 25 52-8 13-30 9-44-7z"/><path d="m6010 6771c0-52 36-53 42-1 2 19-2 26-19 28-20 3-23-1-23-27z"/><path d="m5253 6783c-20-7-15-31 8-44 17-9 25-8 37 4 29 29-3 58-45 40z"/><path d="m5918 6755c-6-28-1-35 23-35 23 0 36 39 18 51-24 15-36 10-41-16z"/><path d="m5373 6733c-18-6-16-28 3-44 13-10 17-10 25 2 18 29 2 52-28 42z"/><path d="m5805 6704c-20-20-15-38 13-42 27-4 52 36 31 49-20 12-25 11-44-7z"/><path d="m5092 6697c-16-18-3-59 17-55 10 2 16 13 16 32 0 33-16 44-33 23z"/><path d="m5880 6685c-6-8-10-22-8-32 5-28 33-27 46 1 10 22 9 27-7 36-14 7-22 6-31-5z"/><path d="m5466 6674c-22-21-17-49 9-49 13 0 21 8 23 24 5 33-11 46-32 25z"/><path d="m5661 6676c-9-10-8-16 4-26 14-12 14-15-2-32-15-17-15-21-3-28 22-14 34-12 46 8 15 23 10 72-8 83-18 12-24 11-37-5z"/><path d="m5582 6648c-7-7-12-18-12-25s-6-22-12-33c-17-27 3-50 27-30s47 70 41 86c-7 17-28 18-44 2z"/><path d="m5767 6643c-4-3-7-19-7-35 0-23 4-28 25-28 19 0 25 5 25 23 0 33-26 57-43 40z"/><path d="m5310 6545c0-20 5-25 24-25s22 4 18 25c-3 16-11 25-23 25-14 0-19-7-19-25z"/><path d="m5660 6560c-18-11-23-101-6-112 18-12 24-9 31 12 5 16 10 18 25 10 26-14 50-2 46 23-3 25-32 35-49 18-18-18-23-13-21 24 3 37-1 41-26 25z"/><path d="m5470 6521c-14-28-13-48 5-55 19-7 38 28 30 54-8 25-21 25-35 1z"/><path d="m4987 6524c-14-15-6-43 14-49 25-8 28-6 31 26 2 18-2 25-17 27-12 2-24 0-28-4z"/><path d="m5097 6516c-3-8 0-22 8-32 11-15 15-16 29-5 25 21 20 51-8 51-13 0-26-6-29-14z"/><path d="m5542 6480c-37-35-22-66 26-53 24 6 35 28 27 54-8 25-26 24-53-1z"/><path d="m5364 6466c-18-14-18-16-2-32 20-20 38-11 38 22 0 28-8 30-36 10z"/><path d="m5242 6458c-18-18-15-48 6-48 24 0 38 12 46 38 6 18 4 22-16 22-13 0-29-5-36-12z"/><path d="m5037 6414c-13-13-8-64 7-64 19 0 38 26 34 47-3 18-29 29-41 17z"/><path d="m5468 6413c-25-6-23-38 3-54 15-10 21-26 22-54 2-29 7-41 20-43 9-2 20 3 23 11 7 19-14 97-26 97-6 0-10 9-10 19 0 23-8 29-32 24z"/><path d="m5568 6408c-25-19-13-70 16-66 11 2 20 6 19 11-2 4-3 21-3 37 0 33-7 37-32 18z"/><path d="m5202 6388c-22-22-14-48 13-48 18 0 25 5 25 19 0 26-23 44-38 29z"/><path d="m5634 6386c-8-20 1-32 26-39 18-5 21-1 18 21-3 30-35 43-44 18z"/><path d="m5295 6360c-7-11 12-50 25-50 16 0 21 19 10 40-12 22-25 26-35 10z"/><path d="m5386 6358c-12-36-16-87-7-92 18-12 52 37 49 69-3 31-34 48-42 23z"/><path d="m5253 6304c-3-9-1-25 6-36 6-10 9-23 6-28-10-16 5-50 20-50 24 0 5-28-26-39-22-7-29-16-29-35 0-15 5-26 11-26 7 0 17-7 24-16 10-14 14-15 33-3 21 13 30 53 23 99-8 52-15 76-24 82-7 4-7 11 1 21 7 8 10 22 6 31-8 21-43 21-51 0z"/><path d="m5143 6279c-15-15-5-39 17-39 21 0 44 25 35 40-8 13-38 13-52-1z"/><path d="m5080 6255c-16-19-5-47 17-43 11 2 18 12 18 27 0 29-17 37-35 16z"/><path d="m5379 6243c-22-5-31-43-16-62 9-11 9-15 0-18-15-5-17-39-4-47 21-14 43 7 39 36-3 20 0 32 12 38 24 13 34 42 18 52-14 8-23 8-49 1z"/><path d="m5182 6219c-17-27 2-56 24-38 18 14 18 33 1 47-10 8-16 6-25-9z"/><path d="m5107 6153c-4-3-7-19-7-35 0-25 3-28 35-28 33 0 34-1 23-20-11-17-10-22 2-30 8-5 23-10 33-10 11 0 17-8 17-25 0-30 15-33 30-6 12 23 3 51-16 51-8 0-14 7-14 15s-4 15-10 15c-5 0-7 13-4 29s2 31-2 33c-17 10-81 18-87 11z"/><path d="m5113 6048c-19-24-21-57-6-70 24-20 44 15 31 53-11 33-12 33-25 17z"/><path d="m5142 5948c-18-18-14-46 8-53 29-9 54 18 40 45-12 23-30 26-48 8z"/><path d="m5667 8664c-9-10 15-54 30-54 8 0 13 12 13 30 0 22-5 30-18 30-10 0-21-3-25-6z"/><path d="m5737 8650c7-25 36-23 41 3 3 12-3 17-21 17-20 0-24-4-20-20z"/><path d="m5574 8625c-9-23 3-45 26-45s27 29 8 48c-16 16-27 15-34-3z"/><path d="m5805 8617c-23-17-14-47 15-47 26 0 37 27 18 46-12 12-17 12-33 1z"/><path d="m5465 8610c-9-15 5-52 18-47 19 6 21 57 3 57-8 0-18-5-21-10z"/><path d="m5702 8568c-16-16-15-33 1-47 18-14 37 5 37 36 0 25-19 30-38 11z"/><path d="m5893 8564c-6-18 6-45 23-51s35 42 21 56c-16 16-37 14-44-5z"/><path d="m5150 8545c-16-19-6-45 18-45 28 0 43 20 31 42s-32 23-49 3z"/><path d="m5387 8542c-11-12-13-22-6-34 13-23 39-11 39 17 0 32-14 39-33 17z"/><path d="m5256 8513c-5-11-1-22 10-30 29-21 44-15 44 17 0 25-4 30-24 30-13 0-27-8-30-17z"/><path d="m5526 8517c-15-11-15-14-1-35 23-32 45-28 45 7 0 33-20 45-44 28z"/><path d="m5801 8521c-12-8-13-12-1-26 18-22 55-16 55 10 0 22-31 31-54 16z"/><path d="m5603 8483c-17-6 2-43 23-43 20 0 30 30 13 41-15 10-18 10-36 2z"/><path d="m5421 8462c-8-15-7-23 4-32 21-18 47-4 43 22-4 29-34 35-47 10z"/><path d="m5670 8429c0-24 4-30 18-27 10 2 18 14 20 31 3 22-1 27-17 27-17 0-21-6-21-31z"/><path d="m5084 8426c-9-22 2-46 21-46 12 0 15 8 13 27-3 30-25 42-34 19z"/><path d="m5782 8418c2-15 11-24 26-26 18-3 22 1 22 22s-5 26-26 26-25-4-22-22z"/><path d="m5210 8399c0-24 4-30 18-27 10 2 18 14 20 31 3 22-1 27-17 27-17 0-21-6-21-31z"/><path d="m5375 8408c-11-28-1-73 15-73 11 0 14 9 12 35-4 41-19 61-27 38z"/><path d="m5500 8390c0-27 28-37 48-17 14 15 13 17-12 27-36 13-36 13-36-10z"/><path d="m5632 8378c-30-30 2-84 34-57 18 15 17 19-4 47-14 18-20 20-30 10z"/><path d="m5061 8344c-12-28-7-44 14-44 22 0 39 38 24 56-16 20-24 18-38-12z"/><path d="m4956 8314c-10-27-7-34 18-34 30 0 42 16 26 35-16 20-36 19-44-1z"/><path d="m5134 8288c-4-6 1-17 12-25 16-12 20-11 31 3 7 9 10 21 7 25-8 13-42 11-50-3z"/><path d="m5597 8294c-4-4-7-18-7-31 0-21 4-24 28-21 21 2 27 8 27 28 0 18-6 26-20 28-12 2-24 0-28-4z"/><path d="m5027 8263c-13-12-7-44 8-50 18-6 45 25 38 44-5 14-35 18-46 6z"/><path d="m4881 8231c-17-11-8-40 16-47 10-3 26-10 36-15 24-13 37-3 37 27 0 20-4 24-19 19-10-3-24 1-31 10-14 17-20 18-39 6z"/><path d="m5352 8228c-14-14-16-44-3-52 15-10 55 29 48 47-7 20-28 22-45 5z"/><path d="m5040 8181c0-24 13-33 34-25 27 10 20 44-9 44-18 0-25-5-25-19z"/><path d="m5216 8171c-15-16-15-19-1-31 18-15 29-7 40 28 8 28-15 30-39 3z"/><path d="m5456 8172c-6-11 16-54 30-59 15-5 26 25 19 48-6 19-39 26-49 11z"/><path d="m4957 8154c-11-11-8-52 3-59 17-10 41 16 38 39-3 21-28 33-41 20z"/><path d="m4824 8135c-8-20 4-35 27-35 20 0 23 8 13 34-8 20-33 21-40 1z"/><path d="m4881 8106c-9-11-8-18 4-30 22-21 32-20 40 4 12 36-20 55-44 26z"/><path d="m5317 8103c-10-10-8-51 2-58 13-8 64 42 56 54-7 12-48 15-58 4z"/><path d="m4770 8086c0-48 44-65 52-21 6 30 2 35-29 35-13 0-23-6-23-14z"/><path d="m4991 8047c-15-19-3-49 18-45 9 2 16 13 16 27 0 29-17 37-34 18z"/><path d="m4725 7996c-14-21-15-29-5-41 25-30 53 19 31 54-7 11-13 8-26-13z"/><path d="m4814 7994c-4-14-2-30 4-36 16-16 42 8 42 38 0 34-37 33-46-2z"/><path d="m4646 7944c-11-29-6-44 13-44 25 0 34 14 26 40-8 24-30 26-39 4z"/><path d="m5171 7941c-12-8-13-14-3-35 13-30 24-32 43-10 22 27-11 63-40 45z"/><path d="m4860 7925c-16-19-3-55 20-55 21 0 33 43 17 59-15 15-22 14-37-4z"/><path d="m5341 7919c-23-9-23-10-5-30 25-27 59-21 59 11 0 28-18 34-54 19z"/><path d="m4698 7894c-31-16-36-35-14-53 11-9 19-6 36 19 27 38 16 54-22 34z"/><path d="m4980 7895c-26-31 23-72 54-45 14 11 10 50-4 50-5 0-15 2-23 5-7 3-20-1-27-10z"/><path d="m4766 7887c-16-12-16-14 4-32 23-21 44-10 38 21-4 23-20 27-42 11z"/><path d="m4587 7873c-13-12-7-41 9-47 19-7 54 20 54 41 0 13-51 19-63 6z"/><path d="m4527 7798c-5-17 3-48 13-48 15 0 32 30 26 45-7 18-33 20-39 3z"/><path d="m4679 7794c-15-18-2-47 24-52 20-4 32 35 17 53-16 19-24 19-41-1z"/><path d="m4591 7787c-15-19 10-53 33-44s21 57-3 57c-10 0-24-6-30-13z"/><path d="m5160 7745c-14-17-7-31 20-38 22-6 46 25 35 43-9 15-41 12-55-5z"/><path d="m4467 7709c-5-17-11-20-36-14-24 5-32 2-41-15-13-25-5-42 20-38 11 2 20-1 21-7 3-24 20-44 34-39 17 7 21 64 5 64-5 0-10 4-10 9s9 7 19 4c20-5 38 27 26 47-11 17-32 11-38-11z"/><path d="m5294 7699c-4-7-9-26-11-42-3-24 0-28 20-25 18 2 21 8 19 33-4 36-17 52-28 34z"/><path d="m5026 7674c-8-31 5-49 29-40 11 4 15 15 13 33-4 38-33 42-42 7z"/><path d="m4537 7673c-15-15-7-43 13-43 15 0 20 7 20 25 0 24-18 34-33 18z"/><path d="m4804 7656c-6-16 12-56 25-56s22 30 16 51c-7 22-33 25-41 5z"/><path d="m4625 7650c-7-12 12-40 26-40 5 0 9 11 9 25 0 25-23 35-35 15z"/><path d="m4493 7599c-15-15-4-49 17-49s32 34 17 49c-6 6-14 11-17 11s-11-5-17-11z"/><path d="m4385 7580c-9-29 10-48 33-34 24 16 22 48-5 52-15 2-23-3-28-18z"/><path d="m4323 7563c-17-6-16-28 2-43 21-17 45-6 38 19-5 21-21 31-40 24z"/><path d="m4731 7528c-8-22 2-48 20-48 12 0 20 35 13 54-9 23-23 20-33-6z"/><path d="m4572 7508c-22-22-14-48 14-48 22 0 24 3 19 23-10 32-19 39-33 25z"/><path d="m4873 7509c-25-9-27-16-14-37 12-19 45-11 49 12 5 25-9 35-35 25z"/><path d="m4246 7495c-11-8-16-21-13-30 8-20 53-20 61 1 8 22 8 22-12 33-12 6-23 5-36-4z"/><path d="m5107 7494c-15-15-7-45 11-42 9 2 17 12 17 22 0 20-16 31-28 20z"/><path d="m4434 7475c-7-17 10-35 34-35 20 0 10 44-11 48-9 2-20-4-23-13z"/><path d="m4330 7436c0-32-19-44-35-23-14 19-31 22-40 6-10-15 15-69 32-69 23 0 53 19 53 34 0 8 8 13 18 12 13-1 17 7 17 29 0 23-5 31-22 33-19 3-23-1-23-22z"/><path d="m4940 7370c0-30 13-37 39-21 19 12 4 51-20 51-14 0-19-7-19-30z"/><path d="m4203 7383c-17-6-16-38 1-52 15-13 29-1 40 37 6 17 3 22-11 21-10 0-24-3-30-6z"/><path d="m4480 7364c-10-11-11-20-3-32 17-27 38-20 38 12 0 34-16 44-35 20z"/><path d="m4354 7355c-4-10 1-25 14-38 20-20 22-20 28-2 8 19-5 46-24 53-7 2-15-4-18-13z"/><path d="m4125 7340c-10-16 5-50 21-50 20 0 29 27 14 45-14 17-26 19-35 5z"/><path d="m4212 7288c-17-17-15-35 5-42 21-8 36 6 31 30-4 22-20 28-36 12z"/><path d="m4296 7263c-10-26 23-48 43-29 12 12 12 18 1 30-17 21-36 20-44-1z"/><path d="m4740 7262c0-18 18-42 30-42 6 0 30 45 30 55 0 3-13 5-30 5-22 0-30-5-30-18z"/><path d="m4113 7254c-3-9 0-20 8-25 23-14 29-11 29 16 0 28-27 35-37 9z"/><path d="m4586 7251c-14-16-15-24-6-40 9-17 15-19 30-11 21 11 24 27 14 54-8 21-17 20-38-3z"/><path d="m4064 7196c-3-14-12-27-20-30s-14-15-14-26c0-22 27-27 58-11 9 5 25 12 35 15 24 7 22 36-3 36-13 0-20 7-20 20 0 28-28 25-36-4z"/><path d="m4224 7205c-9-22 22-53 37-38s7 47-14 51c-9 2-20-4-23-13z"/><path d="m4352 7208c-15-15 3-38 29-38 23 0 26 35 3 44-20 8-18 8-32-6z"/><path d="m3956 7165c-3-8 4-21 15-29 13-9 16-16 10-21-16-10-13-32 6-39 26-10 34 6 27 57-6 40-10 47-29 47-13 0-25-7-29-15z"/><path d="m4157 7166c-7-17 18-40 33-31 5 3 10 15 10 26 0 23-35 27-43 5z"/><path d="m4827 7126c-23-35-21-46 7-46 36 0 48 21 27 49l-17 23z"/><path d="m4236 7111c-20-22-15-51 9-51 20 0 28 21 17 49l-8 22z"/><path d="m4442 7121c-21-13-10-46 16-49 19-3 22 1 22 27 0 31-13 39-38 22z"/><path d="m4065 7089c-8-13 26-53 36-42 4 5 10 18 14 31 5 19 3 22-19 22-14 0-28-5-31-11z"/><path d="m4301 7071c-8-14-7-22 3-30 20-17 46-2 46 25 0 30-34 33-49 5z"/><path d="m4610 7045c-23-25-22-55 3-55 16 0 47 31 47 47 0 6-6 16-13 22-11 8-19 5-37-14z"/><path d="m4186 7047c-11-8-15-19-10-30 8-23 38-18 42 7 5 26-11 38-32 23z"/><path d="m4396 7003c-5-11-1-22 10-30 24-18 31-16 37 6 9 35-35 57-47 24z"/><path d="m4254 6974c-19-8-4-44 18-44 14 0 19 6 16 22-3 22-15 30-34 22z"/><path d="m4740 6957c0-33 23-52 39-33 18 22 9 51-17 54-18 3-22-1-22-21z"/><path d="m4551 6926c-16-19-10-51 9-51 17 0 26 43 12 57-5 5-14 3-21-6z"/><path d="m3351 6251c-10-7-11-13-1-31 11-21 12-21 31-4 14 13 16 20 8 31-13 15-19 16-38 4z"/><path d="m3172 6218c3-25 25-33 47-19 21 14 5 41-24 41-22 0-26-4-23-22z"/><path d="m3087 6203c-26-7-18-47 11-51 19-3 22 1 22 27 0 17-3 30-7 30-5-1-16-3-26-6z"/><path d="m3260 6175c0-20 5-25 25-25s25 5 25 25-5 25-25 25-25-5-25-25z"/><path d="m3482 6167c-9-11-8-18 8-32 10-9 26-15 35-12 16 7 21 47 6 47-5 0-16 2-24 5-7 3-19 0-25-8z"/><path d="m3155 6140c-8-12 3-50 14-50 15 0 33 30 27 45-6 17-32 20-41 5z"/><path d="m3060 6115c0-14 2-25 4-25s11-3 20-6c13-5 16 1 16 25s-4 31-20 31c-15 0-20-7-20-25z"/><path d="m2982 6093c2-20 8-28 23-28 31 0 28 49-3 53-20 3-23 0-20-25z"/><path d="m3640 6100c-11-7-12-14-4-27 21-34 57-23 47 15-6 24-19 27-43 12z"/><path d="m3011 6042c-10-18 2-52 19-52 14 0 41 31 35 41-4 5-15 13-25 19-15 8-21 6-29-8z"/><path d="m3116 6045c-12-32 3-59 27-49 22 8 21 27-2 48-17 15-19 15-25 1z"/><path d="m3333 6033c-20-7-15-41 7-53 16-8 22-8 26 4 13 34-5 61-33 49z"/><path d="m2936 6007c-21-16-12-47 15-47 14 0 19 7 19 30 0 33-7 37-34 17z"/><path d="m3471 5942c-12-22 3-42 31-42 19 0 42 35 33 50-10 17-54 11-64-8z"/><path d="m2855 5940c-4-6-1-17 5-25 7-8 10-25 7-37-6-23 8-58 24-58 5 0 14 11 19 25 7 18 17 25 35 25 20 0 25 5 25 25 0 30-23 33-42 6-17-24-33-15-33 19 0 26-28 40-40 20z"/><path d="m3829 5934c-14-17-4-44 19-52 17-5 32 40 20 56-14 16-23 15-39-4z"/><path d="m3020 5932c-31-10-40-23-29-43 16-31 51-22 63 17 7 23-8 35-34 26z"/><path d="m2785 5910c-9-14 4-50 18-50 7 0 19 5 27 10 12 7 12 13 4 27-13 21-39 28-49 13z"/><path d="m3167 5884c-10-10-9-42 2-48 18-11 42 6 39 28-3 21-28 33-41 20z"/><path d="m3643 5874c-3-8-1-20 5-26 16-16 42-2 42 22s-38 28-47 4z"/><path d="m2934 5836c-9-24 4-48 23-44 12 2 18 12 18 28 0 29-32 41-41 16z"/><path d="m2741 5823c-6-12-6-25-1-34 12-19 45 1 45 27 0 25-31 30-44 7z"/><path d="m3057 5833c-14-14-7-43 11-43 25 0 31 7 25 31-5 19-23 25-36 12z"/><path d="m3286 5791c-20-22-14-41 13-41 24 0 45 25 37 45-8 21-29 19-50-4z"/><path d="m2845 5770c-9-14 14-52 28-47 7 2 13 16 15 30 3 21-1 27-17 27-11 0-23-4-26-10z"/><path d="m3480 5765c-17-21-8-50 17-53 17-3 24 3 29 22 10 42-19 63-46 31z"/><path d="m2634 5755c-10-25 4-45 32-45 23 0 25-3 20-24-12-50 22-77 44-35 8 15 8 24 0 34s-8 19-1 34c17 31 4 52-24 41-15-6-27-6-30 0-9 15-35 12-41-5z"/><path d="m2782 5758c-18-18-15-36 8-48 26-14 44 17 25 43-15 20-17 21-33 5z"/><path d="m2983 5734c-7-18 6-45 25-52 14-4 35 35 28 54s-45 18-53-2z"/><path d="m3087 5672c-22-24-21-34 4-50 24-16 25-15 34 19 9 36-16 56-38 31z"/><path d="m2848 5675c-12-13 5-45 24-45 14 0 19 6 16 22-3 22-27 35-40 23z"/><path d="m2540 5645c-16-19-6-45 19-45 23 0 35 28 20 46s-24 18-39-1z"/><path d="m3561 5641c-16-11-8-39 14-47 24-10 47 14 34 37-11 21-26 24-48 10z"/><path d="m2594 5615c-8-33-2-39 31-31 27 7 32 25 13 44s-37 14-44-13z"/><path d="m3242 5593c2-20 8-28 23-28 31 0 28 49-3 53-20 3-23 0-20-25z"/><path d="m2723 5584c-3-8 1-23 10-31 20-21 47-2 40 27-6 24-41 27-50 4z"/><path d="m2484 5565c-10-25 4-45 31-45 31 0 35 34 6 50-26 13-31 13-37-5z"/><path d="m2833 5573c-7-2-13-13-13-24 0-24 45-27 54-3 11 28-8 41-41 27z"/><path d="m2931 5556c-9-11-10-20-1-36 17-31 45-22 45 15 0 34-24 45-44 21z"/><path d="m2643 5535c-3-9 3-25 12-35 16-18 16-20 2-20-22 0-35-49-16-61 20-12 36 7 41 49 7 57-23 108-39 67z"/><path d="m2450 5481c-14-28-13-31 14-31s40 22 23 39c-16 16-25 14-37-8z"/><path d="m2540 5481c-16-32-12-61 9-61 22 0 55 46 47 66s-44 17-56-5z"/><path d="m3354 5485c-8-21 2-45 20-45 7 0 16 7 20 15 8 21-3 45-20 45-8 0-17-7-20-15z"/><path d="m2727 5458c-8-27-1-38 23-38 19 0 36 32 25 50s-43 11-48-12z"/><path d="m2370 5446c0-21 16-36 40-36 14 0 20 44 7 52-25 16-47 9-47-16z"/><path d="m2807 5463c-13-13-7-42 12-52 23-13 31-5 31 31 0 20-5 28-18 28-10 0-22-3-25-7z"/><path d="m2958 5426c-22-16-23-30-4-45 12-10 18-7 31 13 25 38 7 59-27 32z"/><path d="m2427 5413c-11-10-8-43 3-43 12 0 31 35 23 44-8 8-18 8-26-1z"/><path d="m2502 5397c-14-16-4-59 12-54 13 4 21 67 8 67-5 0-14-6-20-13z"/><path d="m2348 5389c-24-13-23-36 1-49 39-20 69 18 39 48-14 14-18 14-40 1z"/><path d="m2591 5386c-13-15-5-46 13-46 6 0 22 7 34 16 18 13 21 19 11 30-15 18-43 18-58 0z"/><path d="m3025 5370c-15-17-16-22-4-37 7-10 15-20 16-22s9 2 18 9c19 15 19 44 2 59-11 8-18 6-32-9z"/><path d="m2663 5353c-7-2-13-14-13-25 0-14 6-19 23-16 14 2 22 10 22 22 0 21-12 28-32 19z"/><path d="m2400 5320c-9-16-8-22 4-26 8-3 20-2 27 2s10 2 7-7c-13-34 35-68 48-34 7 17-43 85-62 85-7 0-18-9-24-20z"/><path d="m2244 5305c-8-20 4-35 27-35 24 0 37 29 18 41-21 13-39 11-45-6z"/><path d="m2337 5313c-10-9-9-51 2-57 13-9 44 31 38 49-7 15-28 20-40 8z"/><path d="m2734 5305c-9-21 4-35 33-35 19 0 24 4 19 16-3 9-6 20-6 25 0 15-40 10-46-6z"/><path d="m2202 5236c-8-19-8-27 3-36 8-6 19-9 25-5 14 9 13 40-3 54-11 8-16 5-25-13z"/><path d="m2576 5233c-4-9-2-21 3-26 15-15 41 0 41 23 0 25-35 28-44 3z"/><path d="m2790 5205c0-28 25-44 42-27 15 15-1 52-23 52-14 0-19-7-19-25z"/><path d="m2284 5205c-9-23 6-37 32-31 17 5 24 2 24-9 0-16 9-19 34-9 23 9 21 54-2 54-10 0-23-5-30-12-9-9-12-8-12 5 0 21-38 23-46 2z"/><path d="m2902 5197c-6-7-12-26-14-42-2-25 1-31 20-33 17-3 22 1 22 20 0 13 3 33 6 46 7 25-16 31-34 9z"/><path d="m2070 5160c-20-37 9-53 45-26 16 12 17 16 6 30-18 22-38 20-51-4z"/><path d="m2207 5173c-4-3-7-15-7-25 0-13 7-18 25-18 20 0 25 5 25 25 0 18-5 25-18 25-10 0-22-3-25-7z"/><path d="m2461 5167c-17-17-13-35 10-42 25-8 52 14 44 36-7 18-38 22-54 6z"/><path d="m2297 5123c-12-12-7-41 8-47 16-6 40 28 30 44-7 11-28 13-38 3z"/><path d="m2635 5084c-19-19-19-28 0-44 13-10 19-10 35 5 10 9 16 23 14 30-9 21-32 26-49 9z"/><path d="m2037 5083c-4-3-7-17-7-30 0-18 6-23 24-23 33 0 42 17 20 41-18 20-27 23-37 12z"/><path d="m2184 5076c-9-24 4-48 23-44 12 2 18 12 18 28 0 29-32 41-41 16z"/><path d="m2522 5081c-21-13-10-46 16-49 20-3 23 0 20 24-3 30-16 38-36 25z"/><path d="m2386 5063c-8-19 8-38 23-29 16 10 13 46-3 46-8 0-17-8-20-17z"/><path d="m1933 5025c-3-9 0-21 7-25 19-12 51 1 48 19-4 22-46 27-55 6z"/><path d="m2108 5034c-12-11 5-45 21-42 24 5 27 48 3 48-10 0-21-3-24-6z"/><path d="m1843 4994c-3-8-1-20 5-26 16-16 42-2 42 22s-38 28-47 4z"/><path d="m2234 4985c-7-18 12-45 32-45 8 0 14 6 14 14s3 21 6 30c5 12 0 16-20 16-15 0-29-7-32-15z"/><path d="m1991 4981c-17-11-7-41 13-41 17 0 39 34 29 44-9 8-25 7-42-3z"/><path d="m2726 4981c-9-14 4-41 19-41 21 0 36 25 23 38-14 14-35 16-42 3z"/><path d="m2045 4960c-8-26 7-45 30-36 21 8 16 50-7 54-10 2-19-5-23-18z"/><path d="m1896 4935c-17-17-42-20-51-5-10 15-35 12-35-5 0-20-17-19-28 1s-32 10-32-15c0-23 26-46 34-32 8 12 64 3 84-12 12-10 26-3 28 14 1 5 2 13 3 18 0 5 11 11 23 13 29 4 37 38 9 38-11 0-26-7-35-15z"/><path d="m2462 4942c-18-12-4-42 19-42 14 0 19 7 19 25 0 25-14 31-38 17z"/><path d="m2121 4926c-16-19-7-46 14-46 22 0 30 29 13 46-13 13-16 13-27 0z"/><path d="m1967 4913c-4-3-7-14-7-24 0-11-5-16-13-14-6 3-18-4-25-16-20-31 6-47 30-19 9 11 22 20 30 20 7 0 21 7 31 14 16 13 16 15 2 30-17 17-37 21-48 9z"/><path d="m2571 4902c-8-15-6-23 8-36 10-9 21-13 24-9 12 11 8 40-7 52-12 10-17 8-25-7z"/><path d="m2340 4892c0-24 49-40 61-20 14 21 4 33-29 36-26 3-32 0-32-16z"/><path d="m2030 4871c-5-11-10-24-10-30 0-17 47-13 54 5 8 22 8 22-14 34-15 8-21 6-30-9z"/><path d="m1677 4873c-16-15-6-43 14-43 15 0 19 4 15 16-3 9-6 20-6 25 0 11-14 12-23 2z"/><path d="m2233 4868c-25-12-30-37-12-55 14-14 39-6 39 12 0 7 5 15 12 17 12 4 4 38-9 37-4 0-18-5-30-11z"/><path d="m1780 4860c0-5-8-10-19-10-24 0-34-35-14-51 12-10 16-10 24 2 5 8 9 17 9 20 0 15 50-5 55-22 12-37 41-14 31 24-8 31-86 65-86 37z"/><path d="m1673 4795c-3-9-3-18 0-22 10-10 37 6 37 22 0 20-29 20-37 0z"/><path d="m2505 4789c-10-30 8-44 29-24 9 9 16 23 16 31 0 22-38 17-45-7z"/><path d="m1590 4781c0-11 4-22 8-25 14-9 35 12 29 28-9 23-37 20-37-3z"/><path d="m2631 4771c-15-9-9-41 8-41 5 0 17 7 26 16 13 14 14 19 3 25-16 11-20 11-37 0z"/><path d="m2021 4612c-7-13-6-23 1-30 15-15 49 13 41 34-7 20-30 17-42-4z"/><path d="m1796 4604c-12-31-6-44 19-44 30 0 43 24 25 45-16 20-36 19-44-1z"/><path d="m2924 4555c-8-21 2-45 19-45 8 0 20 7 27 15 10 12 10 18 0 30-7 8-19 15-27 15-7 0-16-7-19-15z"/><path d="m1617 4493c-9-9-9-53 1-53 32 1 52 15 52 36 0 18-5 24-23 24-13 0-27-3-30-7z"/><path d="m3022 4348c-16-16-15-33 4-48 21-18 49 9 39 39-7 23-25 27-43 9z"/><path d="m1497 4303c-4-3-7-15-7-25 0-15 5-18 23-13 30 10 41 21 33 34-8 12-39 15-49 4z"/><path d="m1510 4195c-12-15-6-35 12-35 11 0 37 29 38 43 0 13-37 7-50-8z"/><path d="m1774 4157c-7-20 1-47 15-47 17 0 22 33 7 49-14 13-16 13-22-2z"/><path d="m3115 4131c-10-17 15-53 33-49 26 5 22 52-5 56-11 2-24-2-28-7z"/><path d="m1432 4084c5-25 35-41 49-27 18 18 3 43-26 43-19 0-26-5-23-16z"/><path d="m1712 4051c-13-36-7-43 24-29 25 12 28 17 18 42s-31 19-42-13z"/><path d="m1750 3985c-10-12-10-18 0-30 16-19 39-19 46 0 6 15-11 45-26 45-4 0-13-7-20-15z"/><path d="m1492 3938c4-25 17-32 38-18 13 9 12 12-4 25-27 21-38 19-34-7z"/><path d="m3164 3896c-9-24 4-48 23-44 12 2 18 12 18 28 0 29-32 41-41 16z"/><path d="m1406 3864c-8-31 5-49 28-41 24 10 21 67-3 67-12 0-21-10-25-26z"/><path d="m1554 3745c-8-20 3-48 18-43 6 2 16 12 22 21 8 13 7 20-4 27-21 14-30 12-36-5z"/><path d="m1846 3723c-9-10-7-51 3-57 16-10 41 5 41 25 0 19-33 43-44 32z"/><path d="m1448 3703c-19-22-13-43 12-43 20 0 36 33 25 50-9 15-20 12-37-7z"/><path d="m1995 3667c-21-16-13-37 15-37 23 0 32 13 24 34-7 20-15 20-39 3z"/><path d="m3150 3655c-10-12-10-18 0-30 25-30 57-12 45 25-8 24-28 26-45 5z"/><path d="m1464 3585c-9-23 3-45 25-45 25 0 32 11 24 38-6 25-41 30-49 7z"/><path d="m2742 3578c-17-17-15-35 5-42 21-8 48 17 40 38-8 19-28 21-45 4z"/><path d="m2052 3563c4-22 43-25 43-3 0 8-11 16-23 18-19 3-23 0-20-15z"/><path d="m1587 3563c-13-12-7-43 7-43 25 0 46 12 46 25 0 19-39 32-53 18z"/><path d="m2204 3525c-11-27 4-47 28-40 35 11 43 22 28 40-16 19-49 20-56 0z"/><path d="m3025 3519c-10-30 18-58 40-39 22 18 15 54-12 58-15 2-23-3-28-19z"/><path d="m2614 3515c-8-21 2-45 19-45 21 0 38 25 31 44-8 20-43 21-50 1z"/><path d="m2130 3495c0-18 5-25 19-25 20 0 31 17 24 38-3 6-13 12-24 12-14 0-19-7-19-25z"/><path d="m2378 3499c-10-6-18-19-18-30 0-27 43-22 48 5 5 25-9 37-30 25z"/><path d="m2252 3451c-15-9-13-42 3-48 6-2 19 3 30 11 16 12 17 16 6 30-15 18-21 19-39 7z"/><path d="m2054 3435c-7-17 2-45 14-45 20 0 45 28 39 44-8 20-46 21-53 1z"/><path d="m2450 3435c-13-16-7-45 9-45 17 0 40 30 35 45-8 19-28 19-44 0z"/><path d="m2167 3418c-8-27 4-41 29-36 28 5 26 52-2 56-15 2-23-4-27-20z"/><path d="m1742 3418c-16-16-15-33 1-47 21-17 51 10 43 37-8 24-26 28-44 10z"/><path d="m1652 3398c-17-17-15-45 3-52 8-3 15-15 15-26 0-13 7-20 19-20 27 0 33 25 11 45-10 9-16 22-14 29 8 20-20 38-34 24z"/><path d="m2316 3385c-11-28-7-35 20-35 21 0 25 4 22 22-4 27-33 36-42 13z"/><path d="m2957 3313c-6-30 14-60 32-49 6 4 11 23 11 42 0 27-4 34-19 34-12 0-20-9-24-27z"/><path d="m1727 3280-18-29 28-7c17-5 28-3 31 4 2 7 19 12 38 12 28 0 34 4 34 20 0 28-30 38-46 15-12-16-14-17-20-2-9 25-28 20-47-13z"/><path d="m2835 3297c-23-17-12-37 21-37 28 0 44 28 23 41-19 12-22 11-44-4z"/><path d="m1787 3223c-2-4-7-20-11-36-9-37 18-48 47-18 17 17 19 25 11 39-12 19-40 28-47 15z"/><path d="m2671 3196c-15-18-3-46 20-46 25 0 35 26 19 45-15 19-24 19-39 1z"/><path d="m1867 3174c-16-16-6-35 16-32 12 2 22 10 22 18 0 16-26 25-38 14z"/><path d="m1993 3154c-3-8 2-23 11-32 15-15 17-15 33 0 13 14 14 20 3 32-16 20-39 20-47 0z"/><path d="m2797 3163c-13-12-7-44 8-49 22-9 44 13 38 36-5 19-33 27-46 13z"/><path d="m2527 3128c-8-28 8-47 33-41 24 6 34 32 19 49-17 21-46 17-52-8z"/><path d="m2190 3115c-10-12-10-18 0-30 21-25 40-18 40 15s-19 40-40 15z"/><path d="m2379 3094c-10-13-10-17 2-25 25-15 39-10 39 16 0 28-21 33-41 9z"/><path d="m2666 3092c-8-25 2-52 20-52 19 0 30 29 17 48-14 24-31 25-37 4z"/><path d="m2084 3076c-3-8-12-12-19-10-17 7-28-12-20-36 8-26 25-26 32 0 4 15 11 18 34 13 29-6 34 1 23 31-8 20-43 21-50 2z"/><path d="m2270 3037c0-26 27-44 43-28 15 15 3 46-21 49-18 3-22-1-22-21z"/><path d="m2494 3045c-9-22 3-45 20-39s29 32 20 45c-8 14-34 11-40-6z"/><path d="m2172 3038c-6-6-12-20-12-29s-9-19-20-22-20-10-20-16c0-17 31-26 40-12 4 7 18 18 31 25 16 7 24 20 24 36 0 28-23 38-43 18z"/><path d="m2351 2996c-15-17-3-48 17-44 8 2 20 11 26 21 8 14 8 20-4 27-20 13-26 12-39-4z"/><path d="m2226 2973c-4-9 0-23 9-32 13-14 17-14 31 1 9 9 14 24 11 32-8 21-43 20-51-1z"/><path d="m4100 5576c0-29 11-39 35-30 24 10 15 48-12 52-19 3-23-1-23-22z"/><path d="m3970 5520c-12-7-12-13-4-27 17-27 39-22 42 10 3 28-10 35-38 17z"/><path d="m4338 5409c-25-14-22-38 5-48 29-12 40 0 31 33-7 29-11 30-36 15z"/><path d="m4224 5305c-4-9 0-23 9-32 21-21 49-9 45 19s-45 38-54 13z"/><path d="m4035 5296c-25-18-11-56 20-56 28 0 39 13 30 39-8 25-29 33-50 17z"/><path d="m4364 5225c-9-23 3-45 25-45 19 0 31 25 24 48-6 17-42 15-49-3z"/><path d="m4315 5168-28-22 23-18c12-10 26-15 32-12 5 3 12-3 15-14 7-28 31-35 38-12 8 24-1 40-21 40-8 0-14 10-14 24 0 35-13 39-45 14z"/><path d="m3620 5164c-11-12-10-18 4-32 15-15 18-15 26-2 25 39-2 69-30 34z"/><path d="m3850 5165c-10-12-10-18 0-30 16-19 40-3 40 26 0 23-23 25-40 4z"/><path d="m4160 5110c-15-28-6-50 20-50 18 0 21 5 18 32-4 38-22 47-38 18z"/><path d="m3975 5060c-8-25 1-40 25-40 25 0 43 33 28 48-18 18-46 14-53-8z"/><path d="m4284 5056c-9-23 0-51 17-54 20-4 30 28 17 52-11 20-27 21-34 2z"/><path d="m4360 5036c0-13-7-29-15-36s-15-23-15-37c0-35 44-29 48 7 2 14 11 33 19 42 13 14 13 20 3 33-19 23-40 18-40-9z"/><path d="m4146 5004c-11-27-7-43 14-54 17-9 22-7 32 14 8 20 8 29-2 41-16 19-36 19-44-1z"/><path d="m3732 4998c-20-20-15-58 8-58 25 0 41 30 29 53-12 20-21 21-37 5z"/><path d="m3182 4948c-20-20-14-38 13-38 26 0 29 7 19 34-7 19-16 20-32 4z"/><path d="m4260 4936c0-7-7-19-15-26-20-16-19-49 1-57 22-8 64 39 64 72 0 20-5 25-25 25-15 0-25-6-25-14z"/><path d="m4344 4902c-20-13-35-50-23-57 5-4 14-18 19-31s17-24 26-24c14 0 16 8 11 52-7 55-16 71-33 60z"/><path d="m3486 4891c-4-5-3-17 0-26 10-24 48-15 52 13 3 18-1 22-22 22-14 0-27-4-30-9z"/><path d="m3975 4870c-11-18 5-50 26-50 16 0 20 6 17 27-3 28-31 43-43 23z"/><path d="m3255 4850c-12-38 20-55 46-24 11 14 10 18-6 30-25 19-32 18-40-6z"/><path d="m4159 4855c-11-10 3-54 19-60 19-7 33 12 30 40-3 19-37 33-49 20z"/><path d="m4072 4838c-7-7-12-23-12-36 0-19 5-23 23-20 26 4 35 39 14 56-10 9-16 9-25 0z"/><path d="m3065 4810c-9-15 5-52 18-47 15 5 16 49 0 54-6 2-14-1-18-7z"/><path d="m3739 4804c-11-14-10-19 10-36 29-23 46-11 37 26-7 30-27 34-47 10z"/><path d="m4233 4790c-25-10-31-45-10-53 17-7 66 3 73 14 3 5 2 18-1 29-7 21-26 24-62 10z"/><path d="m3654 4739c-8-13 24-41 41-36 5 2 10 12 10 23 0 22-39 32-51 13z"/><path d="m3985 4719c-9-41 10-62 31-35 21 29 18 66-5 66-14 0-21-9-26-31z"/><path d="m3224 4715c-8-21 2-45 20-45 19 0 29 29 15 46-15 18-28 18-35-1z"/><path d="m4133 4710c-4-14-11-19-24-15-20 7-44-27-35-51 8-21 37-17 43 7 3 11 11 18 18 15 19-7 55 22 55 45 0 27-50 27-57-1z"/><path d="m4227 4691c-4-18 9-41 24-41 4 0 15 7 24 16 12 12 13 19 4 30-17 20-46 17-52-5z"/><path d="m3430 4680c0-15 7-20 25-20s25 5 25 20-7 20-25 20-25-5-25-20z"/><path d="m3881 4661c-10-7-11-13-2-30 15-26 38-27 46-1 11 34-12 51-44 31z"/><path d="m3730 4646c0-9 5-16 10-16 6 0 10 4 10 9 0 6-4 13-10 16-5 3-10-1-10-9z"/><path d="m4161 4638c-6-16-5-27 5-38 18-19 37-1 32 31-4 31-26 36-37 7z"/><path d="m3536 4618c-14-20-14-24-1-37 19-19 45 1 45 35 0 30-24 31-44 2z"/><path d="m4100 4610c0-5-7-10-16-10-22 0-44-25-44-49s31-29 49-7c6 7 25 16 41 20 34 6 40 30 11 46-25 13-41 13-41 0z"/><path d="m3960 4549c-16-29-5-51 22-47 31 4 36 43 9 57-17 9-22 8-31-10z"/><path d="m3797 4542c-22-24-21-38 0-46 11-5 22-1 30 10 16 22 16 29 0 43-11 8-18 7-30-7z"/><path d="m4080 4495c-7-9-21-13-35-9-13 3-26 1-30-5-3-6-16-9-28-6-28 6-62-19-54-40 9-21 57-20 57 2 0 13 3 14 12 5 19-19 49-14 55 8 5 20 6 20 25 4 24-23 43-6 34 30-7 29-18 33-36 11z"/><path d="m3473 4493c-15-5-17-49-4-57 5-4 21-2 36 4 25 10 26 12 13 32-16 24-27 29-45 21z"/><path d="m3630 4475c0-21 5-25 30-25 33 0 35 3 20 31-16 29-50 25-50-6z"/><path d="m3311 4462c-7-13-6-23 1-30 26-26 54-7 43 28-8 25-31 26-44 2z"/><path d="m3832 4448c-7-7-12-25-12-41 0-39 34-34 38 7 4 34-9 51-26 34z"/><path d="m3383 4394c-8-20 19-47 39-39 17 7 30 40 20 49-12 12-53 5-59-10z"/><path d="m3893 4379c-15-15-5-39 17-39 16 0 30 18 30 41 0 13-34 11-47-2z"/><path d="m3536 4367c-15-11-17-17-7-35 15-28 38-28 46-1 10 31-15 54-39 36z"/><path d="m3670 4350c0-16-4-30-10-30-5 0-10-7-10-15 0-24 24-17 53 16 21 25 25 35 16 45-6 8-20 14-30 14-14 0-19-7-19-30z"/><path d="m3964 4355c-13-20-14-29-5-38 17-17 46 4 46 33 0 33-21 36-41 5z"/><path d="m3870 4295c-22-27-4-62 35-69 58-11 74 14 33 51-32 28-55 34-68 18z"/><path d="m3685 4269c-4-13-2-25 6-29 20-13 39 0 39 26 0 31-36 33-45 3z"/><path d="m3772 4273c-13-26-4-43 24-43 22 0 25 4 22 27-4 33-32 43-46 16z"/><path d="m3574 4225c-4-9 0-23 9-32 21-21 49-9 45 19s-45 38-54 13z"/><path d="m3765 4166c-8-13-13-31-9-40 9-22 41-20 54 4 12 23 40 16 40-11 0-29 38-25 46 5 12 51-36 87-67 50-11-14-13-14-21 0-12 22-25 20-43-8z"/><path d="m3543 4138c-4-7-21-13-38-13-23 0-30-4-30-20 0-14 8-21 28-23 15-2 27 1 27 7 0 5 12 9 28 8 23-2 28 2 30 26 3 21-1 27-17 27-11 0-24-6-28-12z"/><path d="m3667 4133c-12-11-8-42 7-50 8-4 16-19 18-32 3-27 16-35 37-22 12 8 11 16-3 52-21 51-42 70-59 52z"/><path d="m3772 4063c2-20 8-28 23-28 31 0 28 49-3 53-20 3-23 0-20-25z"/><path d="m3440 4025c0-31 29-46 44-23 9 15 11 15 22 1 14-21 44-10 44 16 0 22-21 33-40 21-7-5-24-4-37 1-33 12-33 12-33-16z"/><path d="m3605 4022c-11-9-20-24-20-32 0-16 26-41 36-34 4 2 12-3 19-11 17-20 49-19 57 1 8 22-10 49-33 49-12 0-20 8-22 23-4 26-10 27-37 4z"/><path d="m3718 3975c-8-19-8-29 0-37 18-18 42-1 42 32 0 38-26 41-42 5z"/><path d="m3510 3935c0-20 5-25 24-25 14 0 27 4 30 9 11 18-6 41-30 41-19 0-24-5-24-25z"/><path d="m3461 3927c-14-14-14-44-1-52 15-9 40 14 40 35 0 22-24 32-39 17z"/><path d="m3567 3903c-4-3-7-17-7-31 0-22 3-24 35-18 30 6 35 4 35-12 0-11 7-26 16-33 14-11 19-10 34 9 21 26 17 53-11 71-16 9-24 9-35 0s-14-8-14 5c0 16-40 23-53 9z"/><path d="m3498 3842c-7-10-21-21-30-25-10-3-18-16-18-27 0-26 29-38 44-19 6 9 19 18 29 22 11 4 17 17 17 37 0 34-21 41-42 12z"/><path d="m3561 3816c-6-7-11-18-10-22 1-5-1-17-5-26-10-22-1-48 16-48 26 0 36 16 40 60 2 34-1 45-13 48-9 1-21-4-28-12z"/><path d="m3487 3733c-27-7-18-47 11-51 16-2 25 3 31 20 14 36 4 43-42 31z"/><path d="m3402 3718c-14-14-16-44-2-53 18-11 51 15 48 38-3 25-28 33-46 15z"/><path d="m3437 3653c-4-3-7-17-7-30 0-24 23-32 35-12 5 6 12 4 20-7 16-23 41-12 47 21 6 31-11 42-41 26-13-7-22-8-26-1-7 12-19 13-28 3z"/><path d="m3363 3544c-3-8 1-22 9-30 12-12 17-12 33-1 23 17 14 47-15 47-11 0-23-7-27-16z"/><path d="m3320 3430c-25-25-25-36-1-43 24-6 56 26 48 48-8 20-23 19-47-5z"/><path d="m2022 4063c-17-34 5-54 37-34 10 7 11 13 2 30-14 26-27 27-39 4z"/><path d="m2116 3978c-3-13-1-27 3-31 14-14 31 2 31 29 0 30-26 32-34 2z"/><path d="m2091 3891c-8-14-7-22 4-31 21-18 45-5 45 25 0 31-34 35-49 6z"/><path d="m2225 3880c-8-25 1-40 25-40 22 0 34 28 19 46-16 20-37 17-44-6z"/><path d="m2313 3853c-23-9-14-33 12-33 18 0 25 5 25 20 0 19-12 24-37 13z"/><path d="m2194 3804c3-9 6-18 6-20s9-4 20-4c13 0 20 7 20 20 0 15-7 20-26 20-20 0-25-4-20-16z"/><path d="m2682 3808c-15-15-15-45-1-53 10-7 49 21 49 36 0 16-36 29-48 17z"/><path d="m2374 3785c-15-23-15-28-3-36 18-11 30-7 43 14 8 12 7 21-6 33-15 15-17 14-34-11z"/><path d="m2520 3770c-13-25-5-40 21-40 25 0 35 25 19 45-17 20-27 19-40-5z"/></g></svg>