<svg height="1725pt" preserveAspectRatio="xMidYMid meet" viewBox="0 0 1125 1725" width="1125pt" xmlns="http://www.w3.org/2000/svg"><g transform="matrix(.1 0 0 -.1 0 1725)"><path d="m2735 16010c-3-5-10-8-15-5s-12-5-16-17-17-30-29-40c-16-13-23-28-23-57-1-26-8-47-22-61s-19-27-14-45c3-14 2-31-4-38s-13-31-16-54c-3-24-11-57-20-75-8-18-25-67-37-108-13-41-25-77-28-80-8-7-29-51-36-77-4-16-2-23 7-23 17 0 48-51 48-78 0-10 11-36 25-56s25-43 25-50 9-25 21-40c11-14 23-38 25-53 3-15 9-32 14-38s12-30 16-52c3-23 13-44 20-47 8-3 14-16 14-30s4-28 10-31c5-3 17-21 26-40s20-35 25-35 9-7 9-15c0-20 5-19 47 10 20 13 41 21 46 18s12-1 16 4c3 6 28 13 54 17 48 7 49 7 42-16-4-13-12-24-16-26-5-2-4-13 2-24 7-12 11-76 10-157 0-120 11-236 27-281 3-8 4-22 3-30-2-17 26-127 62-245 26-85 116-294 137-320 7-8 10-23 7-34-2-11 5-31 19-47 22-27 94-167 94-183 0-4 9-26 20-49 11-22 20-48 20-57s7-18 15-21c8-4 15-19 15-34 0-16 5-32 10-35 6-4 9-22 8-40-1-19 0-36 2-37 3-2 14-8 25-14s21-20 23-30c7-48 38-136 74-206 21-42 38-80 38-84s11-22 25-40 25-38 25-44c0-17 47-94 70-115 11-10 20-23 20-29s18-26 40-45c40-33 52-61 27-61-7 0-18-9-25-20s-17-20-24-20c-13 0-88-77-88-90 0-6-5-10-11-10s-30-15-52-32c-23-18-49-37-59-43-9-5-63-41-118-80-131-91-152-104-172-111-9-3-19-12-22-20s-15-14-26-14-20-7-20-15c0-9-9-15-21-15s-30-11-41-25-28-25-38-25c-9 0-23-7-30-15s-19-15-26-15c-8 0-14-4-14-8 0-5-12-14-27-21-20-9-28-9-33 0-11 18-30 1-30-26 0-18-7-26-24-31-37-9-58-37-50-68 3-14 10-26 15-26s9-5 9-11 12-20 26-32c20-16 25-26 20-48-4-24-2-28 22-34 42-9 67-34 93-95 6-14 15-33 20-42 5-10 9-24 9-32s6-19 13-23c6-4 19-21 27-37s23-31 32-34c10-2 15-8 12-13s4-19 15-31c12-12 21-28 21-35s6-13 13-13c18 0 63-49 72-77 9-32 61-32 70-1 4 11 26 39 49 61 22 22 49 52 58 66 9 13 36 32 59 40 55 21 68 41 43 69-10 12-26 22-35 22s-21 11-27 25-16 25-22 25c-5 0-10 5-10 12 0 6-7 19-16 29-23 25-12 48 20 42 19-4 26-1 26 11 0 9 6 16 13 16 8 0 64 25 124 55 61 30 117 55 124 55s23 10 34 23c11 12 33 30 48 40s25 22 22 26c-3 5 2 11 10 14 20 8 75-76 75-115 0-20 8-36 25-50 14-11 25-30 25-43s5-25 10-27c6-2 12-19 15-39 2-20 10-49 16-65s10-55 10-86c0-32 4-60 10-63 5-4 5-14-2-26-6-11-10-39-8-62 1-23-1-49-4-57s-11-42-17-75c-7-33-16-64-20-70-5-5-10-26-12-45-5-33-8-47-28-97-6-14-5-25 0-28 17-11 11-25-11-25-17 0-20-4-16-22 4-12 1-28-4-35-15-17 5-74 36-103 14-13 25-31 25-40s18-34 40-55 40-45 40-52 4-13 9-13c9 0 36-40 79-120 14-25 33-51 42-57 10-7 27-29 37-50 89-169 133-261 133-278 0-12 5-26 11-32s29-55 50-109c22-55 49-119 60-144 33-72 37-81 60-155 12-38 34-86 48-105s36-66 48-105c37-120 79-236 126-350 24-60 59-155 77-210 17-55 35-109 40-120 4-11 18-47 30-80s26-68 31-77c5-10 9-26 9-36s7-27 15-38c8-10 15-27 15-37 0-9 5-26 10-37 6-11 15-29 20-40 6-11 10-28 10-38s4-22 8-28c5-5 19-43 32-84 12-41 29-89 36-107 8-17 14-37 14-44 0-18 20-79 37-111 13-25 26-63 82-228 12-36 28-79 36-95 11-25 33-93 73-230 3-11 11-31 19-45 7-14 13-31 13-38s10-32 22-55 22-46 23-52c3-25 19-71 30-85 16-20 33-78 54-183 9-48 23-93 29-99 7-7 12-22 12-34 0-24 15-38 39-39 8 0 20-22 28-50 16-52 57-165 98-270 14-33 29-81 36-107 6-27 15-48 20-48s9-6 9-12c0-7 12-35 26-63 39-75 63-145 67-192 2-24 9-48 14-55s17-33 25-58c31-90 53-145 64-155 6-5 16-30 23-55s21-67 31-95c11-27 26-79 35-115s20-81 26-100 12-46 13-60 12-41 24-60 22-38 22-43c0-4 11-30 25-59 14-28 25-55 25-60 0-8 59-152 99-243 27-60 49-134 56-190 6-52 20-106 35-140 5-11 19-51 31-90 12-38 34-96 49-127 16-31 26-59 23-61-2-3 1-16 8-29 7-12 12-30 11-39-2-9 4-22 12-28 9-7 18-29 22-50 3-20 15-51 25-69s19-39 19-47c0-15 25-97 40-130 5-11 17-51 26-90 9-38 28-86 41-106 15-23 28-62 34-105 8-62 46-195 69-249 5-11 19-45 30-75 12-30 29-73 38-95 8-22 30-71 48-110 35-74 72-173 82-215 3-14 13-38 24-55 46-76 107-216 118-270 6-33 20-78 29-100 27-61 40-89 49-105 5-8 13-22 18-31s42-62 82-117c39-55 72-105 72-110 0-6 14-25 31-43 30-32 62-77 100-138 9-15 30-42 48-61 17-19 31-40 31-48 0-7 7-15 15-18 8-4 15-13 15-20 0-8 14-17 30-20 16-4 30-13 30-20 0-8 4-14 9-14 15 0 220-192 222-207 0-4 24-19 52-33 29-14 56-36 62-48 5-12 18-22 28-22s27-16 38-35c12-19 27-35 35-35s27-11 41-24c23-22 28-23 38-10 6 9 17 14 24 12 8-2 17 9 22 27 7 23 4 33-11 47-24 23-25 26-3 50 13 15 15 23 6 37-12 18 0 122 17 153 6 10 10 37 10 60 0 43 12 123 29 206 4 23 5 45 1 47-4 3-8 51-9 107 0 57-7 159-15 228s-12 129-9 133 0 13-5 20c-6 7-13 37-16 67s-14 88-25 128c-10 39-17 81-14 92s1 20-5 20c-5 0-10 10-10 23 0 33-23 149-34 174-6 12-8 28-5 37 3 8-1 29-9 45-9 17-13 35-9 40 3 6 1 18-4 28-9 16-22 63-25 88-1 6-9 27-19 49-9 21-17 43-17 49 0 20-51 182-66 210-9 15-13 35-10 43s-1 17-9 20c-8 4-15 19-15 34 0 16-4 32-10 35-5 3-10 19-10 34s-4 31-8 37c-12 13-34 122-27 133 3 5-2 14-11 19-11 6-18 27-22 61-2 28-8 51-12 51s-11 20-14 44c-4 24-13 50-21 56-7 6-17 26-21 43-6 30-10 39-34 87-5 11-10 28-10 38s-7 27-15 38c-8 10-15 31-15 47 0 15-4 27-9 27-8 0-20 38-27 95-3 17-9 32-14 33-6 2-10 17-10 32 0 16-8 37-18 47s-19 31-20 47-9 43-17 59c-8 17-15 37-15 45 0 13-21 66-41 105-5 10-7 22-4 27 4 6 2 10-3 10-11 0-42 88-42 118 0 11-7 25-15 32s-15 22-15 34-4 26-9 32c-5 5-19 41-31 79-13 39-27 74-32 79-4 6-8 22-8 37s-4 31-10 34c-5 3-10 17-10 29 0 13-7 29-15 36s-15 23-15 36c0 12-4 25-9 28-8 5-19 44-24 91-1 11-7 29-13 40-11 22-25 64-80 255-20 69-40 130-44 135-8 12-42 113-44 135-2 8-8 28-14 43-7 16-12 34-12 41 0 8-9 35-21 60-11 26-18 55-15 63 4 9-1 24-9 33-9 10-18 26-20 36-10 42-45 132-69 177-14 26-26 55-26 64 0 16-17 56-56 136-13 27-24 56-24 65 0 10-11 47-24 84s-21 69-18 72c2 3-1 12-7 20-7 8-10 20-6 25 3 6-3 19-15 31-11 11-20 27-20 36 0 8-5 25-12 37-6 12-13 33-14 47-2 14-14 47-27 75-31 63-57 143-57 173 0 13-9 41-20 64-11 22-17 44-14 49s-2 20-11 33c-9 14-14 30-10 35 6 11-2 33-50 136-44 95-65 145-65 156 0 7-11 27-25 45-16 21-21 35-14 39 7 5 6 12-4 23-19 23-50 109-43 120 5 9-19 77-55 158-11 23-19 47-19 54 0 13-21 64-56 135-8 17-16 43-18 57-1 15-8 33-14 41-7 8-10 16-7 19 3 2-6 27-19 54s-26 66-30 88c-4 21-12 47-17 57-5 11-13 27-18 37s-12 33-15 52c-7 36-12 48-39 111-9 20-13 46-11 56 3 11-2 25-10 32-9 8-16 24-16 36s-6 28-14 34c-7 6-16 30-20 52s-16 60-28 85c-11 25-21 53-22 62-2 29-36 124-66 187-15 33-31 76-35 95s-13 49-20 65c-17 43-35 99-35 113 0 6-11 36-25 66s-25 67-25 83c0 15-7 37-15 47-8 11-15 32-15 47s-5 29-11 31c-5 2-12 15-13 28-5 42-18 94-26 105-14 19-47 121-54 166-4 26-13 55-21 65-8 11-15 29-15 40 0 12-7 35-15 50-8 16-12 36-9 46 2 9 0 19-6 23-5 3-10 15-10 26s-7 31-16 44c-9 14-13 32-10 41 4 9 1 23-5 30s-9 19-7 26c3 7-1 27-7 43-7 17-10 36-8 43 3 7 1 20-3 30-4 9-9 44-10 77-4 65-7 91-16 115-9 25-42 193-44 225-8 141-40 229-80 219-12-3-26 1-33 10-8 9-20 16-28 16-7 0-28 16-46 35-17 19-38 35-44 35-7 0-13 5-13 10 0 6-6 10-13 10-8 0-36 25-63 55s-61 59-76 64c-19 7-28 17-28 31 0 13-8 24-20 27-27 7-50 46-43 73 5 20 3 22-15 18-17-5-22-2-22 12 0 10-6 20-14 23s-17 21-21 39-14 42-21 53c-8 11-14 29-14 40s-7 28-15 39-12 30-9 46c4 17 0 32-11 43-10 10-14 25-10 36 3 11 1 22-5 26-19 12-11 53 13 61 20 6 132 54 244 105 24 10 49 19 57 19 7 0 19 6 25 14 7 8 35 20 64 26 29 7 58 17 65 23 18 14 39-7 45-46 15-84 21-104 40-130 17-25 24-28 51-22 17 3 44 8 60 9 17 2 32 8 34 15 3 9 7 9 18 0s18-6 33 12c15 19 21 21 34 11 12-10 17-8 31 13 11 17 25 25 46 25 38 0 54 29 44 79-11 58-12 76-2 82 6 4 1 25-12 50-16 31-23 68-26 129-3 47-12 104-20 127s-16 57-16 75-4 38-7 43c-4 6-15 36-26 68-10 31-22 57-27 57-4 0-8-4-8-8 0-11-70-33-81-26-5 3-20-3-34-12s-25-13-25-10c0 4-9 2-19-4-14-7-22-7-27 1s-13 4-24-11c-14-19-29-24-79-27-34-1-71-8-82-14-14-7-24-7-33 0-7 6-17 7-22 2-25-21-106-39-182-40-48 0-90-5-97-11-8-7-49-13-92-15s-89-7-103-12-54-8-90-6-89 3-119 3h-53l5 32c2 18-1 51-9 73-7 22-14 59-16 83-2 25-8 42-15 42s-15 12-18 28c-4 15-14 62-24 105-11 42-15 80-10 83s-2 25-16 50-25 53-25 62c0 10-4 22-8 28-5 5-19 41-31 79-12 39-25 77-28 85s-8 24-10 35c-9 53-49 161-69 191-13 18-26 50-30 71s-15 50-25 65c-11 14-19 30-19 36 0 5-7 15-15 22s-15 20-15 30c0 9-9 25-20 35s-20 26-20 36-4 21-10 24c-5 3-10 14-10 23s-9 28-20 42-20 32-20 41-9 44-20 79c-11 34-18 65-15 69 6 10-16 71-38 104-10 15-15 32-12 37s-6 21-20 36c-15 16-24 36-22 46 3 9-1 22-9 29-8 6-14 17-14 23s-16 27-36 46c-19 18-43 47-52 62s-24 30-33 33-20 16-23 29-26 40-51 60c-32 26-45 45-45 63 0 16-7 27-19 30-28 7-30 35-5 56 12 9 25 17 29 17s24 13 44 29c20 15 42 26 49 24 23-8 42 18 42 58 0 22-4 39-10 39-5 0-7 13-4 29 5 25 3 30-17 33-17 2-25 10-27 29-2 15-12 35-23 45-10 9-19 23-19 31 0 13-4 22-34 80-9 17-16 43-16 57s-4 26-10 26c-5 0-10 9-10 20 0 10-9 24-20 30s-20 21-20 33c0 13-9 42-20 65-11 22-20 54-20 70 0 29-28 72-47 72-10 0-62 22-98 42-21 12-71 26-119 33-16 2-36 10-45 18-15 12-37 20-141 50-19 5-46 15-60 22s-29 14-35 15c-5 1-19 6-30 10-43 16-83 21-90 10z"/><g fill="#eee"><path d="m2894 15780c33-11 72-20 87-20s31-5 34-10c4-6 11-8 16-4 5 3 20-1 33-9 12-8 33-13 47-10 16 3 30-1 38-11 8-9 24-16 36-16 57 0 102-45 131-130 11-30 22-56 27-58 4-2 7-11 7-20 1-9 9-33 19-52 51-95 72-147 74-183 2-23 9-43 15-45 7-2 12-8 12-14 0-14-42-47-59-48-23 0-81-23-81-32 0-4-7-8-15-8-9 0-35-10-58-22s-44-23-47-23c-3-1-23-9-45-19s-57-20-77-23c-21-3-35-9-33-13 9-14-65-34-78-21-18 18-36 13-70-19-37-35-58-35-67 0-4 14-35 81-68 150-34 69-62 131-62 138s-7 12-15 12c-9 0-15 9-15 23 0 13-4 27-9 33-9 9 6 86 22 112 5 6 5 16 2 22-8 14 34 128 50 134 7 2 16 25 19 51 4 26 16 54 26 62 11 9 17 21 14 25-7 10 15 68 25 68 3 0 33-9 65-20z"/><path d="m3280 14982c0-11 9-29 20-42s20-27 20-32c0-4 8-8 18-9 10 0 12-3 5-6-21-8-15-23 8-23 35 0 229-205 229-242 0-5-17 0-37 11-73 40-115 42-199 11-46-18-83-38-92-52-9-13-31-38-49-56-18-19-33-41-33-50 0-10-9-32-20-50s-20-39-20-47c0-7-5-17-12-21-8-5-9 0-5 16 6 22-4 84-18 123-5 12 2 17 30 23 25 4 35 11 31 20-3 8-1 14 5 14 17 0 79 52 79 66 0 8-5 14-10 14-7 0-7 6 0 20 9 16 8 20-6 20-16 0-16 2 1 20 17 19 17 20-1 27-10 4-19 2-22-5-2-7-16-12-32-12-25 0-40-15-40-40 0-5 14-5 30 0 26 7 30 6 30-10 0-14-10-21-35-26-40-7-53-20-36-37 7-7 16-5 31 8 12 11 20 13 20 6 0-6-7-14-15-17-8-4-12-10-9-15s-2-9-10-9c-10 0-16-9-16-22-1-22-1-22-14-5-16 20-20 184-5 193 5 3 9 14 9 25 0 10 5 19 11 19s9 7 5 15c-3 8-1 15 5 15 14 0 6 43-15 74-9 15-16 29-14 30 25 16 57 23 66 14 7-7 17-3 31 11 12 12 27 21 35 21s16 7 20 15c8 21 26 19 26-3z"/><path d="m3532 14560c40-28 50-31 63-20 9 7 13 21 10 31-4 11-2 19 4 19s13-12 17-27c3-16 12-42 20-60 8-17 14-33 14-36 0-8-64 17-72 28-4 6-15 11-25 12s-46 5-80 9c-81 9-102 2-152-48-44-43-111-149-111-174 0-7-8-14-17-14s-14 3-11 6c4 3 2 19-2 35-5 17-5 31 1 34 5 4 9 17 9 31 0 13 3 24 8 24 4 0 13 15 21 33 17 38 93 117 136 141 46 25 110 16 167-24z"/><path d="m3550 14420c28-15 45-17 84-11 47 8 49 7 60-20 6-16 14-29 18-29s8-7 8-15c0-13 20-65 41-107s5-50-31-16c-26 24-69 29-149 15-54-9-122-62-145-114-9-21-23-49-30-63s-14-43-15-64-11-58-21-82c-11-24-20-59-20-79 0-45-21-43-35 3-5 18-13 32-17 32s-8 6-8 13c0 6-11 32-25 57-46 85-47 90-34 144 7 28 13 68 14 91 1 39 9 63 43 135 21 43 101 127 127 133 31 8 95-4 135-23z"/><path d="m3200 14244c0-24-30-75-40-69-6 4-3 16 5 29 9 13 15 28 14 32-1 5-1 15 0 22 1 18 21 5 21-14z"/><path d="m3724 14149c22-13 37-16 41-9 12 19 35 10 35-14 0-14 6-31 13-38 15-17 40-59 35-61-2-1-14-8-28-16-17-10-25-10-28-2-2 6-20 18-40 28-20 9-43 21-51 27s-38 11-67 11c-50 0-53-1-58-29-4-16-15-35-26-43s-20-21-20-29-4-22-9-32c-4-9-15-30-23-47-8-16-20-50-27-75s-20-62-28-82c-9-20-13-44-10-52 3-9 2-18-2-21-5-2-12-22-16-42-7-36-8-37-18-16-8 17-6 32 7 60 9 21 17 65 17 98 2 67 44 274 65 314 8 14 14 32 14 39 0 6 9 12 19 12 11 0 21 3 23 8 2 4 14 15 28 25 31 22 105 15 154-14z"/><path d="m3715 13983c19-9 35-20 35-25 0-11 38-10 45 2 9 15 25 12 25-4 0-18 45-47 62-41 16 6 52-60 42-76-3-5 1-21 10-34 16-24 16-24-8-15-13 5-27 6-30 3s-12 0-21 7c-8 7-25 10-38 6-16-4-28 1-40 14-21 24-48 25-90 3-18-9-40-17-49-18-10-1-26-9-37-19-12-11-21-14-26-7-9 16-45 13-45-3 0-7-9-16-20-19-21-5-29 16-10 28 6 3 10 17 10 29 0 13 6 29 14 35s19 31 25 55c12 50 54 96 87 96 13 0 39-8 59-17z"/><path d="m3590 13741c0-4-5-22-11-40l-11-32-22 26c-12 14-27 25-34 25s-11 4-7 10c3 5 12 7 20 4 7-3 22-1 32 5 22 13 33 14 33 2z"/><path d="m3803 13731c15-6 27-7 27-1 0 5 13 4 30-2 49-16 30-32-36-32-61 1-114-22-114-50 0-7-11-23-24-35-15-14-27-40-31-65-4-22-10-45-13-50s-7-23-9-40-5-47-7-66c-5-45-17-92-26-105-4-5-7-35-6-66 1-66-14-73-39-17-15 35-15 41-2 56 10 12 15 42 15 96 1 43 5 83 10 90 11 15 32 84 36 121 14 119 19 136 49 159 32 25 85 28 140 7z"/><path d="m4000 13690c0-5-12-10-27-10-22 0-25 2-13 10 20 13 40 13 40 0z"/><path d="m3552 13637c16-6 16-9 2-49-8-24-17-60-19-80s-8-45-14-56c-5-10-11-37-12-60-4-54-19-41-44 35-11 32-24 64-29 71-7 10-5 17 8 24s16 17 11 37c-4 19-1 32 10 41 8 7 15 18 15 25 0 14 43 36 50 25 3-3 13-9 22-13z"/><path d="m3928 13603c12-3 22-9 22-14 0-17 39-9 50 11 14 26 30 26 30 0 0-11 6-23 14-26s18-20 22-37c3-18 9-36 13-42 12-19 29-75 22-75-3 0-17 9-31 19-19 15-35 18-75 15-49-5-165-52-165-66 0-5-7-8-15-8s-15-7-15-15-3-15-7-15c-5 0-21-20-38-45-32-48-46-57-38-25 4 14 0 20-11 20-9 0-16 4-16 9s-8 12-17 15c-10 3 0 3 22 1 66-7 84 24 23 39-22 5-27 12-26 31 2 17 7 24 16 20 8-3 22-5 33-5s19-7 19-16c0-19 20-14 34 9 15 23 4 29-54 30l-50 2 6 30c4 17 10 32 14 35s10 20 13 38c13 64 74 98 147 79 19-4 45-11 58-14z"/><path d="m4128 13365c-3-3-9 2-12 12-6 14-5 15 5 6 7-7 10-15 7-18z"/><path d="m4023 13366c9-7 17-18 17-24s6-12 13-15c6-2-3-7-20-11-18-4-33-12-33-17s-5-9-11-9c-45 0-168-93-169-127 0-7-4-13-9-13s-12-12-16-27c-4-16-11-34-17-41s-12-29-14-49-11-69-20-110c-17-78-34-90-45-35-3 17-3 29 1 27 10-6 33 51 26 64-15 24 31 228 59 261 52 61 107 107 145 122 55 20 70 21 93 4z"/><path d="m4155 13293c15-35 22-60 16-66-5-5-12 0-16 14-4 13-16 35-27 49-11 15-16 33-12 43 3 9 8 17 9 17 2 0 15-26 30-57z"/><path d="m3660 13271c0-12-20-25-27-18s6 27 18 27c5 0 9-4 9-9z"/><path d="m3685 13174c-8-38-15-78-15-89s-5-37-11-59l-11-38-24 48c-13 26-24 58-24 71 0 34 18 63 34 57 8-3 17-1 21 5 3 7-2 11-14 11-24 0-25 1-9 34 8 19 15 23 23 16 9-7 16-6 25 5 20 24 21 14 5-61z"/><path d="m4058 13218c7-7 37-12 67-12 51-1 55-3 67-31 7-16 13-37 13-45 1-45 18-120 27-120 7 0 8-18 4-49-4-32-3-52 5-56 7-5 8-21 4-42-5-26-2-40 11-54 15-16 15-19 2-19-9 0-21 7-28 15s-19 15-28 15c-25 0-86 24-97 37-15 19-56 19-96-1-28-13-38-25-43-49-3-18-13-45-20-62-8-16-21-44-27-62l-13-31-34 23c-57 39-76 99-57 186 8 35 19 37 39 7l16-22 22 24c20 21 23 22 26 7 2-9 10-17 18-17 17 0 19 16 3 26-8 4-7 9 2 15 7 4 18 4 24-1 8-6 19-3 33 10 12 11 30 20 42 20 11 0 20 7 20 15 0 19-24 19-40 0-11-14-17-13-46 5-25 14-40 17-57 11-13-5-36-7-52-4-25 5-27 4-22-16 3-15 1-21-6-18-7 2-10 15-9 28 2 13 5 42 5 65 1 22 7 47 12 55 6 8 20 31 30 51 21 41 86 93 125 101 43 8 46 7 58-5z"/><path d="m3900 12905c0-3-9-5-20-5s-20 7-20 15c0 13 4 14 20 5 11-6 20-13 20-15z"/><path d="m5476 12814c-5-17-2-32 8-43 8-9 15-25 15-36-1-11 4-58 11-104 6-46 9-90 6-97-3-8-2-14 3-14s12-25 16-56c8-63 1-74-47-74-16 0-28-4-28-10 0-23-27-7-47 29-16 28-21 48-17 70 5 26 1 36-27 62-32 29-93 47-104 29-2-4-15-5-29-3-17 4-27-1-35-15-6-11-36-30-68-42-32-13-73-32-91-43-25-14-36-17-45-8-13 13-31 15-23 2 8-12-32-37-74-46-19-4-44-14-55-21-11-8-30-14-43-14s-35-9-49-20-32-20-39-20c-8 0-37-11-66-24-60-27-112-46-148-53-14-4-36-14-49-24-13-11-29-19-36-19s-15-6-18-14-23-20-44-26c-21-7-44-17-51-23-18-14-107-55-167-77-116-42-192-73-227-91-10-5-26-9-37-9-10 0-30-9-45-21-17-13-35-19-48-16-22 6-94-27-114-53-7-8-15-12-19-8-4 3-33-9-65-28s-73-37-90-40c-17-4-33-11-36-15-3-5-12-9-19-9-13 0-43-24-101-80-12-11-31-20-43-20-27 0-36-22-21-50 6-12 13-31 15-42 3-11 12-29 21-39 10-11 14-19 11-19-4 0 2-16 13-36l20-35-29-30c-16-16-33-29-38-29-12 1-73 58-73 70 0 5-4 10-10 10-5 0-10 9-10 21 0 15-4 19-16 15-13-5-15-1-10 19 4 16 2 25-5 25-13 0-63 50-64 63 0 4-20 30-44 56-23 27-41 51-40 53 2 1-6 17-18 34-25 34-22 44 13 44 13 0 26 5 29 10 3 6 12 10 19 10s29 15 49 33c19 19 51 41 71 51 20 9 36 21 36 26 0 6 9 10 20 10s20 5 20 10c0 6 7 10 15 10s15 5 15 10c0 6 17 19 38 28 43 20 120 68 142 89 16 15 125 96 169 125 14 10 38 23 54 29 15 6 27 14 27 19 0 4 8 10 19 13 17 4 41 38 57 78 3 9 17 22 30 28s24 15 24 21c0 5 5 10 11 10s24 11 41 25c16 14 40 25 52 25 13 0 30 8 40 19 15 16 15 19 1 31-18 15-19 34-2 52 7 7 21 41 31 75s25 64 32 67c8 3 11 12 8 20-8 22 11 27 42 11 16-8 38-15 49-15 26 0 40-10 48-34 6-15 14-17 39-12 18 3 37 1 45-5 7-7 28-9 49-6 21 4 51 0 72-8 43-17 100-12 262 25 30 7 75 12 100 11 55-2 201 25 210 39 3 5 46 15 96 21 49 6 123 15 164 20s84 11 95 12 26 6 33 10c6 5 16 6 20 3 5-3 26 1 48 9 54 19 57 19 50-11z"/><path d="m4617 12179c-4-32 0-52 19-86 17-32 21-50 14-58-7-9-2-25 15-56 40-68 41-70 71-134 16-33 43-81 61-106 18-26 33-51 33-55 0-5 12-20 25-33 14-13 25-28 25-35 0-6 47-60 105-120s105-113 105-118 8-8 18-7c18 2 48-7 72-22 8-5 30-17 48-26 17-9 32-21 32-26 0-4 7-15 15-23 14-15 17-39 19-151 0-29 4-53 8-53 5 0 8-20 8-44 0-25 4-48 10-51 5-3 9-20 8-38s6-46 14-62c9-17 12-38 8-49-8-22 16-156 36-204 8-18 14-44 14-57 0-14 4-33 9-43 5-9 14-35 19-57 22-85 56-192 72-230 9-22 25-69 34-105 10-36 24-78 31-95 7-16 23-61 35-100 12-38 28-84 36-102 8-17 14-40 14-51s6-24 13-30 13-22 15-36c1-13 11-48 23-78 11-29 22-65 24-79 2-15 10-43 19-62 8-19 12-38 9-41s-1-11 4-18c6-7 15-33 21-58 13-56 65-230 86-289 9-24 16-50 16-58s9-33 20-55c11-23 20-48 20-55 0-12 8-32 52-129 10-22 18-52 18-66s7-31 15-38c9-7 14-18 12-24-3-6 2-19 10-28 16-18 125-326 149-423 18-69 22-80 58-153 14-30 26-60 26-68 0-20 68-227 85-261 8-15 15-35 15-43s8-28 18-45c10-16 35-77 56-135s45-112 52-121c8-8 14-23 14-32 0-10 11-45 25-79s25-70 25-80 4-26 9-36c18-33 48-108 59-147 31-110 84-270 106-322 13-32 41-107 61-168 20-60 46-128 56-149 10-22 19-44 19-50 0-9 12-38 70-161 15-33 30-76 33-95s15-73 27-120 23-92 24-100 7-26 13-40 27-74 47-135c56-166 116-336 131-370 7-16 21-57 30-90s22-66 27-73c6-7 8-15 5-19-4-3-3-11 2-17 14-18 64-179 63-202-1-12 5-27 13-34s15-19 15-27c0-7 7-16 15-19 8-4 15-17 15-29 0-13 4-26 9-30 5-3 15-31 21-63 7-31 18-69 26-83 7-15 11-29 8-32-6-5 16-77 26-87 3-3 27-72 53-155 26-82 52-158 57-167 6-10 10-23 10-30 0-12 45-139 60-168 4-9 11-35 15-59 4-23 13-55 21-69 8-15 17-43 20-62 4-19 10-37 13-40 13-11 41-78 52-125 7-27 18-57 25-65 7-9 13-24 14-35 3-68 9-98 20-105 7-4 14-26 15-49 1-22 7-47 14-54 6-8 13-27 14-43 2-16 11-46 20-66 9-21 17-46 17-57s4-22 9-25 12-22 15-41c4-19 11-35 15-35 5 0 12-20 15-45 4-25 12-45 17-45 6 0 8-4 5-9-4-5-1-22 5-38 14-36 30-129 30-169-1-17 6-53 14-80s15-66 15-86c0-21 3-38 8-38 8 0 32-93 32-127 0-12 7-48 15-79s12-61 9-66-1-14 4-21c12-15 23-76 26-147 1-30 6-63 10-73 5-10 4-23-3-31-6-7-8-16-5-19 4-3 4-14 0-23-4-10-9-58-11-107-2-50-8-94-13-99s-8-30-5-56l4-47-16 40c-9 22-21 48-26 57-5 10-9 25-9 33s-4 23-10 33c-5 9-21 44-35 77-26 62-79 176-96 208-5 10-7 22-4 28 4 5-3 21-14 35-11 15-19 30-16 34s-3 25-12 46c-9 22-16 42-15 46 3 11-54 160-79 210-5 10-9 24-9 32 0 7-9 34-21 60-11 25-17 50-14 55s1 12-5 16c-13 8-53 85-44 85 3 0-1 11-9 24-9 13-22 46-28 73-7 26-18 55-26 64s-17 34-20 55c-3 22-11 46-19 54-7 8-16 29-20 45-4 17-22 62-41 101-18 39-33 74-33 78s-10 20-22 36-19 33-15 36c3 3-10 35-29 70s-35 81-37 103c-1 22-10 48-20 59-9 10-17 24-17 30 0 7-4 12-10 12-5 0-10 7-10 16 0 8-14 59-30 112-50 159-53 169-46 180 3 6 2 13-4 17-5 3-10 19-10 36 0 16-4 37-9 47-14 26-45 135-43 149 1 6-2 14-7 18-6 3-8 12-5 20s-4 28-15 44c-12 16-21 38-21 49s-6 22-14 25c-7 3-17 27-20 54-4 26-21 76-37 111-16 34-29 66-29 71 0 22-50 119-64 124-45 17-67-28-38-77 11-18 23-48 27-67 4-18 16-47 25-65 10-18 28-65 40-105 12-41 35-101 51-135 16-33 29-70 29-80 0-11 5-25 11-31 10-10 25-61 34-113 2-14 13-59 25-100 11-41 24-93 27-115s9-41 14-43 9-11 9-20c0-20 32-107 66-179 13-28 24-58 24-65s7-22 15-32c8-11 15-28 15-38 0-11 9-40 21-66 11-26 25-58 31-72s19-42 30-63c11-20 21-48 24-62 2-14 13-40 24-58 11-17 20-40 20-49 0-10 5-18 10-18 6 0 10-9 10-19 0-11 5-23 10-26 6-3 10-17 10-30s4-26 9-30c5-3 17-29 26-58 10-28 21-56 26-61 5-6 9-19 9-30 0-12 6-33 14-48 8-14 19-43 26-65 7-21 18-45 25-53s15-28 19-44 21-59 38-95 32-73 33-81c1-9 7-25 14-37 6-12 11-35 11-51s7-35 15-42c9-7 13-20 10-27-3-8 2-24 10-36s15-31 15-42c0-12 4-25 9-31 14-15 43-113 36-124s32-80 45-80 50-65 50-88c0-11 7-23 16-26 10-4 14-12 10-22-3-8 1-29 10-46 8-16 13-36 10-43-3-8 2-19 10-25 8-7 14-20 14-30 0-9 3-20 7-24 10-9 33-78 33-98 0-26-15-22-42 11-13 15-35 36-50 46l-28 17 22 39c12 21 19 42 15 45-10 10-37-4-44-23-7-18-22-33-35-33-17 0-12 38 10 67 15 20 22 39 18 50-6 14-12 10-37-20-33-40-59-47-80-20-11 13-12 17-1 21 7 2 17 9 22 16 5 6 22 26 38 45 29 34 29 34 9 54-19 19-20 19-69-32-27-28-53-51-58-51-19 0-9 21 29 63 43 47 63 81 54 91-15 14-43 4-59-21-23-38-84-89-84-71 0 15 25 50 82 113 33 37 35 42 21 60-14 20-15 20-34-5-31-39-112-120-121-120-4 0-8 9-8 21 0 26 46 93 99 144 48 47 58 88 24 93-15 2-23-2-23-12 0-19-146-174-155-164-12 12 34 85 95 149 44 46 60 70 58 87-5 36-20 30-68-30-116-144-131-156-144-122-4 9 0 24 8 33 7 9 21 30 30 48 8 17 38 55 66 83 34 35 50 59 48 73-5 34-24 30-54-11-47-64-154-174-154-158 0 21 64 114 119 171 77 82 77 81 42 99-31 17-32 24-8 74 8 16 8 25 0 33-14 14-48-8-72-45-30-45-166-194-175-192-17 4-18 26-2 26 9 0 16 6 16 13 0 25 91 153 137 194 41 36 46 45 37 60-20 33-40 25-77-32-44-65-135-169-154-173-47-12 28 107 145 229 34 36 43 52 37 68-9 29-29 26-51-7-38-59-179-211-188-202-5 5-5 17-1 27 5 10 9 21 9 24 2 15 97 139 143 187 33 35 53 64 53 79 0 36-25 28-62-20-50-65-182-215-190-216-4-1-10 10-14 23-9 37 66 147 192 277 41 43 58 89 33 89-6 0-24-14-39-30-15-17-32-30-37-30-4 0-15-11-23-24-27-43-155-184-165-182-5 1-11 16-13 32-4 37 73 148 165 238 46 44 60 88 31 94-9 2-22-7-30-21-19-36-190-237-201-237-5 0-7 16-4 36 8 45 78 151 156 233 34 36 61 73 61 83 0 24-38 24-47 1-7-19-89-118-159-192-28-29-47-42-58-38-17 7-23 47-6 47 5 0 28 27 50 60 23 34 67 88 98 121s69 75 85 93c27 34 36 66 17 66-11 0-90-76-90-86 0-3-44-51-97-106l-98-100-9 30c-7 25-3 37 29 83 36 52 132 152 175 182 17 12 19 19 11 41-14 34-35 33-58-3-10-16-54-70-98-120-71-81-82-89-95-75-13 13-13 16 3 25 9 6 17 16 17 23 0 20 49 84 128 163 39 41 72 79 72 85 0 11-29 37-42 38-5 0-8-7-8-15s-4-15-10-15c-5 0-10-7-10-15s-4-15-8-15-15-12-25-27c-9-16-42-55-72-88s-55-63-55-67c0-5-7-8-15-8-19 0-37 41-24 54 5 6 9 16 9 22 0 11 91 140 109 154 37 30 91 104 91 125 0 14-3 25-6 25-14 0-44-22-44-33 0-13-180-207-192-207-4 0-14 13-22 29-14 25-13 30 2 47 9 10 31 39 47 64 17 24 60 75 96 112 65 67 88 112 67 133-7 7-14 4-22-9-6-11-58-71-115-133l-104-114-14 32c-17 40-17 59 0 59 8 0 31 25 52 55 20 30 63 81 94 113 31 33 64 73 74 90 17 30 17 33 1 39-11 4-22-1-31-13-68-94-246-273-230-231 3 9 2 19-3 22-20 12-9 38 48 113 63 85 113 137 167 173 23 16 35 32 35 47 0 49-29 35-112-55-109-116-170-173-180-167-11 7-10 44 0 44 5 0 18 19 28 42 21 47 95 140 161 204 42 40 57 84 29 84-7 0-25-15-38-32-14-18-42-51-62-73s-62-70-93-107c-32-37-61-64-65-60-12 13-21 82-10 82 6 0 27 24 46 52 19 29 59 78 88 108 66 67 94 108 96 138 1 32-23 27-50-10-41-58-199-228-208-223-4 3-11 16-14 30-8 30 34 87 148 205 83 85 99 109 85 131-10 15-13 12-159-150-36-40-73-82-83-93-15-18-20-20-28-7-26 41-6 73 127 209 114 117 127 141 77 145-26 2-33-2-37-21-9-35-180-228-189-213-35 59-48 97-29 85 12-7 26 5 50 46 13 20 68 79 122 131 55 53 100 100 100 106s-9 11-20 11c-17 0-53-34-232-222-33-35-40-35-55-2-11 24-10 29 13 46 13 11 32 34 40 51 18 33 39 57 127 144 37 37 57 65 57 80 0 31-17 29-49-7-14-17-50-56-79-88-30-31-72-76-93-99-22-24-43-43-48-43s-12 16-15 35c-7 36 14 80 66 135 30 33 98 122 98 129 0 3 18 19 40 35 45 33 53 66 18 66-16-1-43-25-88-77-121-142-143-163-161-163-11 0-20 6-21 13 0 6-2 17-2 22-1 6-5 16-10 23-5 9 16 37 71 90 82 81 153 163 153 177 0 5 8 17 17 27 13 15 14 21 4 31-9 9-28-6-89-73-106-118-152-162-165-157-6 2-19 18-30 36l-18 34 79 81c160 163 182 190 180 215-4 37-27 37-42-1-8-18-47-62-87-98s-90-80-111-99l-38-33-10 27c-13 35-15 30 32 99 45 66 50 72 150 153 67 55 89 86 70 105-11 11-164-120-234-203-24-27-46-49-50-49s-12 18-18 41c-11 39-10 42 26 87 21 26 82 90 136 143s98 104 98 113c0 35-40 13-111-60-41-43-98-102-128-133l-54-55-15 31c-13 28-13 33 9 64 35 49 157 187 207 233 26 24 42 48 42 62 0 25-19 42-29 27-8-13-140-159-208-232-36-38-54-50-57-40-3 8-10 27-16 42-8 22-6 36 9 65 25 48 95 129 187 217 60 57 72 74 68 93-4 12-12 22-18 22-15 0-58-46-76-82-7-16-17-28-22-28-9 0-13-4-117-105-64-62-74-63-86-8-5 25-3 32 12 37 10 3 24 18 31 33 15 33 62 90 160 195 39 42 72 82 72 87 0 18-44 13-61-6-8-10-43-52-78-93-64-75-149-160-160-160s-38 53-46 88c-5 24-3 32 7 32 8 0 24 17 36 38 24 43 77 107 142 172 43 43 77 115 60 125-14 9-36-5-52-33-32-53-202-242-218-242-5 0-12 10-15 23-4 12-15 41-26 64-22 50-24 73-6 73 7 0 24 18 36 40s33 48 46 56c14 9 27 23 30 32 3 10 34 48 70 86 65 68 81 108 50 120-10 4-22-5-35-26-23-38-218-248-230-248-10 0-47 78-51 107-3 15 41 94 61 113 3 3 22 28 42 55 20 28 64 75 97 104 35 30 61 61 61 72 0 10-4 19-8 19-21 0-62-27-71-47-6-13-15-23-21-23-5 0-10-4-10-9s-12-22-27-38c-16-16-55-59-87-96-59-66-76-74-76-36 0 10-4 19-10 19-5 0-14 18-20 41-9 33-9 44 3 57 8 10 16 22 18 29 2 6 45 55 94 108 92 100 133 161 116 178-14 14-25 4-97-86-87-108-160-187-173-187-6 0-13 12-17 28-3 15-12 43-19 63-13 34-12 39 10 69 33 44 142 165 188 209 46 43 57 60 62 106 7 49-14 45-54-10-33-47-226-258-240-263-12-4-31 71-31 122 0 55 20 83 157 223 75 76 103 111 103 127 0 3-13 6-29 6-21 0-36-9-57-37-31-41-48-61-141-160-42-45-64-62-67-52-44 123-44 122-8 164 15 19 43 55 62 81s63 78 98 116c60 66 78 108 47 108-19 0-50-32-123-130-31-41-76-95-101-120-45-45-45-45-52-20-4 14-19 54-33 89-32 81-33 101-1 131 14 13 25 29 25 36s43 56 95 109 95 103 95 110 3 20 6 29c11 28-35 19-48-9-6-14-22-32-35-40-12-9-23-21-23-28 0-14-154-177-167-177-10 0-22 26-71 148-23 54-26 72-16 72 8 0 14 7 14 16 0 22 54 87 146 176 78 75 94 99 86 130-6 25-29 23-43-4-12-21-240-251-244-246-2 2-17 39-35 83s-40 88-49 98c-14 17-14 19 2 28 10 6 15 15 11 20-3 6 3 20 13 32 11 12 35 44 53 71s71 88 117 135c74 76 94 104 70 102-4-1-13-1-21-1-16 0-45-28-106-101-65-77-167-179-179-179-6 0-11 11-11 24 0 14-4 27-9 30s-12 23-16 43c-4 21-10 43-15 48-15 18-23 85-11 85 6 0 11 5 11 10 0 28 97 154 193 250 32 32 47 56 47 74 0 42-34 33-64-16-14-24-69-90-123-147-96-100-99-102-110-80-23 48-61 184-54 194 4 6 14 25 21 44 23 56 85 144 160 222 53 56 69 80 67 99-3 36-33 37-50 3-15-27-73-103-178-231-41-50-54-60-65-51-8 6-14 18-14 26s-14 56-32 106c-21 62-27 92-20 95 7 2 12 12 12 21 0 10 9 30 20 44s20 29 20 34c0 16 75 120 118 164 23 24 45 52 48 61s12 18 21 20c17 3 27 54 12 63-12 8-104-99-171-200-14-22-46-62-70-89-45-51-68-55-68-13 0 12-7 35-15 51-8 15-13 32-10 36 3 5 1 11-5 15-5 3-10 21-10 40s-4 37-10 40c-14 8-13 45 1 45 12 0 48 40 49 54 0 18 54 91 132 179s86 101 68 112c-15 9-43-14-80-68-19-28-53-71-75-95s-44-52-50-61c-32-57-77-92-81-63 0 4-3 14-6 22-4 8-12 36-19 63-7 26-17 47-22 47s-7 6-4 14c3 7 2 17-3 22-4 5-11 24-15 42-5 25-3 32 9 32 9 0 16 4 16 8 0 18 96 150 147 203 46 48 93 116 93 135 0 27-75-51-195-201-64-80-78-95-89-95-13 1-46 68-46 93 0 10-4 25-9 35-36 70-36 69-4 105 16 18 35 47 42 65s17 32 21 32c3 0 23 24 43 53 20 28 54 69 77 90 39 38 52 78 30 92-10 6-49-32-50-48 0-5-33-48-73-95-40-48-85-104-101-124-34-45-43-47-53-10-3 15-17 48-30 74-32 64-39 104-19 111 8 3 25 25 37 49 23 44 111 159 148 192 11 11 21 24 21 29 0 6 7 18 15 27 10 11 12 25 7 44-8 28-8 28-49-35-23-35-61-85-85-111-56-60-101-116-112-139-15-31-28-18-68 61l-38 74 24 26c13 14 43 57 66 95 54 88 84 128 137 179 49 49 73 131 28 98-11-8-105-130-105-136 0-2-13-19-29-38-16-18-54-64-84-101-31-37-58-63-61-58-4 5-11 29-16 53s-12 56-16 71c-5 21-1 36 13 55 11 15 27 41 36 59 19 35 103 149 154 206 18 20 33 46 33 57 0 36-26 20-80-50-19-25-39-50-45-57-5-6-28-37-50-69s-56-76-76-98l-37-40-21 42c-11 22-21 48-21 55 0 22 74 157 109 199 17 20 31 44 31 53s19 37 43 63c58 63 77 91 70 108-7 20-32 17-40-3-4-10-35-56-70-103-34-47-73-100-85-119-13-18-41-53-62-77-36-41-40-43-52-26-25 37-27 66-3 77 14 6 27 26 35 54 7 24 17 47 21 50 5 3 16 17 25 31 10 14 36 52 59 85 22 33 48 73 57 90 8 16 28 42 45 57 18 18 27 34 23 44-8 20-36 14-50-11-6-11-14-22-18-25s-40-55-81-115c-150-226-182-262-182-212 0 9-5 21-12 28-15 15-4 45 39 101 19 24 46 68 62 98 43 84 47 91 104 162 28 36 52 74 52 85 0 19-17 43-31 43-3 0-23-33-44-72-56-110-64-125-144-240-40-60-77-108-82-108-15 0-39 63-29 75 5 6 23 37 40 70s40 67 50 77c11 9 20 19 20 23 0 3 23 44 50 91 28 47 50 87 50 89s13 18 30 35c36 36 63 87 55 100-3 6-16 10-29 10-22 0-32-13-56-70-6-14-19-38-30-55-11-16-26-43-34-60-8-16-33-55-55-85-73-99-101-141-101-149 0-12-46-41-54-34-12 12-6 45 13 71 10 15 21 37 25 49 9 27 64 120 112 188 51 73 160 241 167 258 12 32-9 39-46 15-20-13-35-27-33-33 2-5-10-30-26-55-15-25-35-60-43-77-8-18-19-33-23-33s-25-29-46-65-40-64-42-63c-6 6 14 113 28 150 8 21 24 48 35 60 12 13 35 50 53 82 17 32 44 74 60 93 34 38 48 79 32 95-12 12-32 2-32-16 0-7-9-21-20-31s-20-22-20-27c0-6-13-28-28-51-16-23-46-68-67-99-21-32-43-58-48-58-19 0 2 110 27 143 13 18 39 59 57 92s46 77 62 97c34 42 43 86 20 95-19 7-35-11-58-67-20-46-85-143-105-155-19-12-21 1-6 31 9 15 13 38 10 50-6 23 23 88 62 141 31 42 44 77 34 93-12 20-33 6-55-36-40-79-70-113-73-81-1 6-4 23-7 37-4 18 3 39 28 76 40 60 49 82 37 89-14 9-39-6-46-28-8-27-34-46-51-40-19 8-16 24 15 74 16 24 31 54 34 66 11 41-12 35-40-11-15-25-30-46-35-46-4 0-12 11-19 24-6 14-24 30-39 37-32 13-38 37-11 45 9 3 25 10 34 15 41 21 107 0 162-53 19-18 62-58 96-88 33-30 60-60 60-67 0-6 6-16 13-20 23-15 87-128 87-155 0-5 9-23 21-39 11-16 25-46 31-67 5-20 19-56 29-80 11-23 28-77 39-119 10-42 24-81 29-86 6-6 11-22 11-37 0-14 7-36 15-50 34-59 65-135 61-147-3-7-1-15 4-18 6-4 10-14 10-24s7-24 15-31c9-7 13-15 11-17-3-3 6-24 19-48 13-23 21-45 18-49-3-3 1-14 10-23 8-10 19-31 23-48 4-16 19-57 34-90s30-73 34-90c6-27 26-74 58-142 6-11 7-26 3-33-4-6 4-28 18-49s34-67 45-102 28-79 37-96c9-18 18-43 19-55 4-25 11-48 28-88 14-31 16-38 24-75 3-16 19-57 34-90s33-78 40-100 19-52 26-67c8-14 14-35 14-45s4-23 9-29c4-5 14-30 21-56 12-45 15-48 45-48 28 0 35 5 44 30 9 27 6 36-20 75-17 25-32 55-33 67-4 34-25 111-35 128-5 9-12 30-15 47-4 17-14 37-22 44-8 6-14 19-14 28s-7 24-15 34c-7 11-17 37-21 60-3 23-12 51-19 62s-16 36-20 55-13 44-20 55-16 36-20 55-13 42-19 50c-7 8-18 35-25 60s-17 53-22 62c-5 10-9 28-9 42 0 13-7 29-15 36s-15 19-15 28c0 8-16 48-35 88s-35 81-35 92-7 25-15 32-12 16-10 21c3 4-8 30-24 56-17 26-26 50-21 51 15 6 12 20-10 42-11 11-20 31-20 44s-7 29-15 36-15 21-15 31-5 21-11 24c-6 4-8 13-5 20 3 8-6 35-20 62-13 26-24 54-24 61 0 6-11 33-24 60-13 26-32 80-41 121-9 40-24 85-33 99-19 30-52 119-52 143 0 9-6 22-14 28s-19 31-24 54c-6 23-23 65-38 92-26 48-27 56-26 190 1 77 1 161 1 188 1 42 4 49 28 59 16 7 36 18 45 26 10 8 24 12 33 9 8-4 15-2 15 3 0 6 9 10 20 10s20 5 20 10c0 6 7 10 16 10 14 0 16-8 11-41z"/><path d="m4359 11989c0-61-3-117-6-125-8-20-45 3-132 85l-74 69 31 7c17 3 32 12 35 19s24 18 48 26c24 7 48 17 54 22 5 4 17 8 27 8 16 0 18-11 17-111z"/><path d="m7631 2312c-9-17-21-30-105-126-37-42-46-47-62-38-10 6-14 12-9 12 6 0 19 17 30 38 28 55 63 94 103 119 39 24 58 22 43-5z"/></g><path d="m2883 15710c-26-27-46-40-65-40-34 0-42-13-45-70-1-25-4-58-6-75-3-16-5-38-6-47 0-9-8-24-17-33-15-14-13-18 20-50 20-18 36-39 36-44 0-6 4-19 9-29 22-44 30-71 36-127 8-71 19-95 43-95 10 0 27-6 37-14 27-20 84-4 231 65 22 10 45 19 51 19s16 7 23 15 16 15 21 15 9-7 9-15 5-15 10-15c6 0 10 6 10 13 0 12 44 37 66 37 18 0 37 27 24 35-5 3-7 17-4 31 6 24-10 52-93 155-32 40-37 54-34 91 2 12-3 16-13 12-11-4-16-1-16 10 0 9-5 16-11 16-5 0-17 16-25 35-9 23-21 35-34 35-10 0-22 5-25 10-3 6-17 10-29 10-13 0-29 6-36 14-6 8-28 16-48 18-29 2-40 9-50 31-7 15-17 27-22 27-6 0-27-18-47-40z"/><path d="m3000 15601c11-13 99-51 119-51 14 0 21-6 21-20 0-11 4-28 9-38 5-9 16-32 23-49 7-18 16-33 20-33 5 0 8-6 8-14 0-7 9-16 20-19 12-3 20-14 20-26s5-21 10-21c6 0 10-13 10-28 0-31-20-46-77-57-40-8-48-5-45 18 2 12-3 17-18 17-19 0-21-4-16-25s2-27-21-36c-16-6-37-16-47-21-21-11-94-13-105-3-6 7-29 114-35 168-2 15-4 28-5 30-5 5-10 45-14 109-5 71-2 77 47 104 20 11 65 8 76-5z" fill="#eee"/><path d="m2957 15524c-10-11 3-24 24-24 10 0 19 7 19 15 0 15-31 21-43 9z"/><path d="m2937 15473c-13-12-7-33 8-33 8 0 15 9 15 20 0 20-11 26-23 13z"/><path d="m2987 15395c6-17 25-15 31 3 2 7-5 12-17 12-14 0-19-5-14-15z"/><path d="m2936 15392c-8-13 11-35 23-28 16 10 14 36-3 36-8 0-17-4-20-8z"/><path d="m3000 15358c0-7-3-24-7-37-4-18-2-22 8-19 16 5 22 55 8 63-5 4-9 0-9-7z"/><path d="m3091 15336c-20-37-4-52 25-25 13 12 24 28 24 36 0 22-36 14-49-11z"/><path d="m3157 15323c-4-3-7-15-7-25 0-26 24-17 28 10 3 21-8 29-21 15z"/><path d="m2934 15309c-10-17 13-36 27-22 12 12 4 33-11 33-5 0-12-5-16-11z"/><path d="m3020 15275c0-27 9-32 27-14 14 14 6 39-13 39-8 0-14-10-14-25z"/><path d="m2960 15255c0-8 9-15 20-15s20 7 20 15-9 15-20 15-20-7-20-15z"/><path d="m3244 14868c-9-15 27-41 39-29 13 13 1 41-17 41-8 0-18-5-22-12z"/><path d="m3200 14840c0-22 7-25 29-11 16 10 6 31-15 31-8 0-14-9-14-20z"/><path d="m3253 14814c-15-7-5-34 12-34 7 0 15 9 18 20 5 20-5 24-30 14z"/><path d="m3363 14784c-8-20 13-42 27-28 12 12 3 44-11 44-5 0-12-7-16-16z"/><path d="m3180 14775c0-8 9-15 20-15s20 7 20 15-9 15-20 15-20-7-20-15z"/><path d="m3140 14756c0-8 4-17 8-20 13-8 35 11 28 23-10 16-36 14-36-3z"/><path d="m3253 14724c-9-23 12-37 44-29l28 7-24 19c-28 23-40 24-48 3z"/><path d="m3495 14360c-9-14 1-27 25-33 22-6 27 12 8 31-15 15-25 15-33 2z"/><path d="m3390 14335c0-8-4-15-10-15-5 0-10-7-10-16 0-13 6-10 25 10 29 31 30 36 10 36-8 0-15-7-15-15z"/><path d="m3582 14314c4-21 22-23 26-1 2 10-3 17-13 17s-15-6-13-16z"/><path d="m3434 14289c-8-14 18-31 30-19 9 9 0 30-14 30-5 0-12-5-16-11z"/><path d="m3305 14281c-3-6 0-13 7-18 20-13 18-46-3-61s-16-37 7-28c8 3 14 2 14-3 0-10 61-8 78 2 7 5 9 13 6 19-5 7-12 4-21-7-7-11-13-14-13-8 0 5-10 15-22 21-13 6-17 11-10 11 6 1 12 9 12 19 0 14 2 14 9 3 10-15 41-8 41 9 0 10-13 14-37 11-7-1-18 7-25 19-14 21-33 26-43 11z"/><path d="m3486 14274c-8-22-8-24 8-24 12 0 26 20 26 36 0 12-29 2-34-12z"/><path d="m3276 14143c-3-8 2-16 12-19 9-3 24-9 33-14 17-9 48 5 36 16-4 4-23 13-42 19-28 10-35 10-39-2z"/><path d="m3262 14078c-20-20-13-31 15-23l27 6-25-20c-19-16-21-22-10-30 7-5 21-6 31-4 27 7 45-31 24-52-21-20-11-53 11-35 8 7 15 19 15 26 0 8 5 23 12 33 9 15 8 22-6 36-16 17-16 19 4 40 11 12 17 25 13 28-11 11-48 8-61-5-9-9-12-9-12 0 0 7-6 12-13 12s-18-5-25-12z"/><path d="m3632 13938c3-7 13-15 22-16 12-3 17 1 14 10-3 7-13 15-22 16-12 3-17-1-14-10z"/><path d="m3613 13870c4-15 0-19-16-17-13 1-23-5-25-15-4-23 21-24 39-2 9 11 22 14 45 10 24-5 33-2 38 10 9 25 8 27-19 22-14-3-25-1-25 3 0 5-10 9-21 9-16 0-20-5-16-20z"/><path d="m3494 13597c-9-24 4-69 19-64 7 2 11 17 9 33-4 37-19 53-28 31z"/><path d="m3800 13564c0-16 5-24 13-22 18 7 20 35 2 41-11 5-15 0-15-19z"/><path d="m3845 13540c-10-16 5-31 26-25 13 4 19 2 19-9 0-17 15-22 24-8 7 11-5 27-31 41-27 14-30 14-38 1z"/><path d="m3966 13533c-11-11-6-23 9-23 8 0 15 4 15 9 0 13-16 22-24 14z"/><path d="m3746 13515c-2-7 0-17 6-23 13-13 38-4 38 13s-37 26-44 10z"/><path d="m3796 13474c-4-10-2-22 3-27 7-7 13-5 17 7 4 10 2 22-3 27-7 7-13 5-17-7z"/><path d="m3850 13450c0-5 7-10 15-10s15 5 15 10c0 6-7 10-15 10s-15-4-15-10z"/><path d="m3947 13144c-12-12 6-34 29-34 26 0 30 10 12 28-13 13-31 16-41 6z"/><path d="m4090 13115c-7-9-10-18-7-21 10-10 47 7 47 22 0 19-24 18-40-1z"/><path d="m3998 13103c-19-5-25-33-8-33 6 0 10-9 10-20s7-20 15-20 15 7 15 15-5 15-10 15c-6 0-8 11-4 25 3 14 5 24 3 24-2-1-12-3-21-6z"/><path d="m3942 13070c-7-19-6-26 5-28 22-5 27 5 16 30l-11 23z"/><path d="m4135 13070c-7-12 2-30 15-30 5 0 14 9 20 20 9 17 8 20-9 20-11 0-23-4-26-10z"/><path d="m3875 13046c-12-10-16-19-10-23 6-5 10-17 10-28s6-20 13-19c6 1 28 2 47 3 57 2 58 50 1 51-10 0-24 7-30 15-10 14-13 14-31 1z"/><path d="m4074 13049c-8-14 11-33 25-25 6 4 11 14 11 22 0 16-26 19-36 3z"/><path d="m4002 12993c2-10 10-18 18-18s16 8 18 18c2 12-3 17-18 17s-20-5-18-17z"/><path d="m4090 12985c-10-12-9-16 5-21 19-8 40 9 31 25-10 15-21 14-36-4z"/><path d="m4113 12923c-24-9-14-33 13-33 18 0 25 5 22 17-3 18-16 24-35 16z"/><path d="m3826 12814c-9-33 7-52 28-35 8 6 13 20 11 29s-4 20-4 25c-2 19-30 4-35-19z"/><path d="m3880 12831c0-15 48-42 55-31 8 13-4 32-16 25-5-4-9-1-9 4 0 6-7 11-15 11s-15-4-15-9z"/><path d="m3874 12766c-4-11-1-21 7-27 17-11 26 18 10 34-7 7-12 5-17-7z"/><path d="m5000 12655c0-8 9-15 20-15s20 7 20 15-9 15-20 15-20-7-20-15z"/><path d="m4596 12621c-3-4 2-15 12-24 21-19 48-7 39 17-7 17-42 22-51 7z"/><path d="m4790 12616c0-10 9-16 21-16 24 0 21 23-4 28-10 2-17-3-17-12z"/><path d="m4145 12580c-8-12 20-24 35-15 6 3 8 11 5 16-8 12-32 12-40-1z"/><path d="m4522 12577c-14-16-6-27 20-27 13 0 18 6 16 17-4 22-22 27-36 10z"/><path d="m4900 12550c0-11 6-20 13-20 19 0 27 10 20 26-8 21-33 17-33-6z"/><path d="m4385 12540c-9-15 4-30 26-30s24 11 7 28c-15 15-25 15-33 2z"/><path d="m4637 12530c-3-13 1-21 14-25 28-9 41 2 29 26-14 25-36 24-43-1z"/><path d="m4070 12525c0-8 7-15 15-15s15 7 15 15-7 15-15 15-15-7-15-15z"/><path d="m4272 12518c-19-19-14-30 11-26 12 2 22 9 22 17 0 19-18 24-33 9z"/><path d="m4820 12515c0-8 7-15 15-15s15 7 15 15-7 15-15 15-15-7-15-15z"/><path d="m4432 12499c-14-5-22-15-20-26 5-25 21-25 41 2 20 28 12 36-21 24z"/><path d="m4151 12487c-9-11-8-17 4-27 18-15 22-13 27 14 4 24-15 31-31 13z"/><path d="m4555 12469c-4-6-4-13-1-16 8-8 36 5 36 17 0 13-27 13-35-1z"/><path d="m4715 12469c-4-6-5-13-2-16 8-7 47 7 47 18 0 13-37 11-45-2z"/><path d="m4002 12428c2-15 10-23 23-23 30 0 27 39-3 43-20 3-23 0-20-20z"/><path d="m4260 12425c-10-12-9-16 3-21 20-7 37 3 37 22 0 18-24 18-40-1z"/><path d="m4150 12390c-10-19-9-21 12-18 13 2 23 9 23 17 0 23-23 24-35 1z"/><path d="m4400 12394c0-9 7-14 17-12 25 5 28 28 4 28-12 0-21-6-21-16z"/><path d="m4590 12395c0-8 7-15 15-15s15 7 15 15-7 15-15 15-15-7-15-15z"/><path d="m3900 12380c-13-9-12-12 4-25 11-8 27-15 37-15s19-10 21-25c4-17 1-25-8-25-16 0-19-16-5-24 14-9 35 2 50 26 12 19 11 24-8 39-11 9-21 22-21 28s-7 11-15 11-15 5-15 10c0 13-21 13-40 0z"/><path d="m4020 12360c12-23 35-22 35 1 0 8-10 15-23 17-21 3-22 1-12-18z"/><path d="m4476 12373c-11-12-6-30 9-30 8 0 15 6 15 13 0 15-15 26-24 17z"/><path d="m4324 12359c-8-14 11-33 25-25 6 4 11 14 11 22 0 16-26 19-36 3z"/><path d="m3845 12336c-18-13-18-15-2-30 9-9 14-23 11-30-8-21 16-30 34-12 14 14 14 17-2 35-11 12-14 21-7 26 15 9 14 25-2 25-7 0-22-6-32-14z"/><path d="m4215 12340c-8-14 3-30 21-30 8 0 14 9 14 20 0 21-24 28-35 10z"/><path d="m4295 12310c-4-7-3-16 3-22 14-14 45-2 40 15-6 16-34 21-43 7z"/><path d="m4070 12280c0-15 5-20 18-18 9 2 17 10 17 18s-8 16-17 18c-13 2-18-3-18-18z"/><path d="m3805 12251c-7-22 14-63 30-58 18 6 17 36-3 58-20 21-20 21-27 0z"/><path d="m3997 12253c-12-12-7-43 6-43 20 0 25 9 20 31-5 20-15 24-26 12z"/><path d="m3743 12233c-26-9-13-33 17-33 19 0 30 5 30 14 0 15-27 25-47 19z"/><path d="m3894 12215c-9-36 11-56 31-29 18 24 15 48-7 52-12 2-19-5-24-23z"/><path d="m4114 12209c-8-14 11-33 25-25 6 4 11 14 11 22 0 16-26 19-36 3z"/><path d="m4026 12186c-32-27-25-36 22-29 29 5 68 43 43 43-5 0-15 2-23 5-7 2-26-6-42-19z"/><path d="m3664 12179c-3-6-2-15 3-20 11-11 40-2 46 15 6 15-39 20-49 5z"/><path d="m3950 12151c0-11 4-22 9-25 12-8 34 21 26 34-11 17-35 11-35-9z"/><path d="m3744 12149c-8-14 11-33 25-25 6 4 11 11 11 16 0 13-29 20-36 9z"/><path d="m3796 12145c4-8 12-15 19-15 8 0 11-8 8-19-3-10 0-22 6-26 11-6 15 0 25 48 6 25 4 27-28 27-27 0-34-3-30-15z"/><path d="m3592 12124c2-13 10-18 27-16 13 2 29-4 37-15 11-12 17-14 20-6 3 7 12 9 20 6 7-3 12-9 9-14-9-14 30-30 43-17 17 17 14-4-4-27-14-19-16-19-25-2-7 12-15 15-26 8-11-6-27-3-50 10-18 11-45 19-58 19-16 0-25 6-25 15s-9 15-25 15c-29 0-33-16-6-25 30-9 18-39-17-46-23-5-32-3-32 7 0 19-20 28-33 15-7-7-5-17 9-32l19-22-26 6c-16 4-33 1-45-7-25-19-11-32 20-18 21 9 23 8 19-9-3-10-13-19-22-19-10 0-21-3-24-7-4-4-27-7-52-8-47-1-72-15-61-34 5-8 13-8 26-1 25 13 30 13 30-5 0-9-9-15-25-15-14 0-28-6-31-14s-13-12-25-9-21-1-25-11c-5-13-9-14-21-5-10 9-17 9-25 1-14-14-2-32 22-32 13 0 17-5 13-20-4-14 0-20 11-20 10 0 16 9 16 25 0 18 7 26 25 31 32 8 58-2 28-11-15-5-23-15-23-29 1-56 36-56 70 0 25 43 25 42-2 47-21 3-21 4-5 11 12 6 22 3 30-8 14-19 47-12 47 10 0 8 9 19 20 26s20 18 20 25c0 16-32 17-47 2-6-6-16-8-22-4-15 9-2 28 14 21 8-3 19 2 25 10 18 20 51 19 43-3-5-13-2-15 11-10 10 4 20 7 22 7s4 7 4 15c0 19 19 20 26 1 6-17 66-17 71 0 2 6-6 14-17 17-18 5-20 9-11 25 5 10 7 28 4 40-3 13-1 22 6 22 11 0 13-6 15-49 1-13 9-29 18-35 15-9 23-5 48 23 30 32 32 32 45 15 13-18 14-18 20-2 4 10 22 20 41 24 27 5 34 11 34 30 0 17-6 24-20 24-11 0-20 7-20 15s-9 15-20 15-20 7-20 15c0 10-12 14-42 13-24 0-56 3-71 7-25 7-28 5-25-11z"/><path d="m3530 11984c0-9-5-14-12-12-18 6-21 28-4 28 9 0 16-7 16-16z" fill="#eee"/><path d="m3865 12120c-8-13 20-24 40-16 8 3 15 10 15 16 0 13-47 13-55 0z"/><path d="m3890 12069c0-22 25-26 33-5 3 8-2 16-14 19-14 4-19 0-19-14z"/><path d="m3341 11977c-13-16-5-27 21-27 11 0 18 7 18 20 0 23-22 27-39 7z"/><path d="m3237 11913c-14-13-6-33 13-33 22 0 23 1 14 24-7 17-16 20-27 9z"/><path d="m3474 11889c-8-14 11-33 25-25 6 4 11 14 11 22 0 16-26 19-36 3z"/><path d="m3132 11803c2-10 10-18 18-18s16 8 18 18c2 12-3 17-18 17s-20-5-18-17z"/><path d="m3080 11756c-10-13-10-20-2-28 16-16 32 2 23 25-6 17-8 18-21 3z"/><path d="m3142 11733c2-10 10-18 18-18s16 8 18 18c2 12-3 17-18 17s-20-5-18-17z"/><path d="m3207 11736c-7-16 1-26 20-26 7 0 13 9 13 20 0 23-25 27-33 6z"/><path d="m3132 11663c2-10 10-18 18-18 22 0 18 29-3 33-14 3-18-1-15-15z"/><path d="m3201 11591c-16-10-6-31 15-31 8 0 14 9 14 20 0 22-7 25-29 11z"/><path d="m3261 11516c-8-10-7-17 3-26 17-13 36-6 36 15 0 19-27 26-39 11z"/><path d="m5251 9398c-19-50-17-63 12-81 37-23 62-9 71 38 9 45-6 65-45 65-21 0-32-6-38-22z"/><path d="m5306 9262c-26-29-15-64 25-78 28-9 37-9 52 4 34 30 11 92-35 92-14 0-32-8-42-18z"/><path d="m5366 9126c4-11 1-16-10-16-18 0-20-9-7-43 12-31 35-40 66-25 35 16 36 73 1 82-13 3-31 9-40 12-12 5-15 2-10-10z"/><path d="m5423 8963c-19-4-21-9-17-36 9-51 12-57 32-57s62 39 62 57c0 16-29 43-43 42-7-1-22-4-34-6z"/><path d="m5500 8831c0-6-6-11-13-11-17 0-35-31-33-60 1-22 5-25 36-22 74 8 90 40 39 80-16 13-29 19-29 13z"/><path d="m5563 8623c-19-4-23-11-23-38 0-36 20-55 60-55 36 0 48 70 16 92-11 8-16 8-53 1z"/><path d="m5633 8418c-4-7-8-15-9-18 0-3-4-13-8-23-11-23 10-47 40-47 32 0 48 39 32 75-12 27-42 33-55 13z"/><path d="m5726 8114c-16-22-17-29-6-50 15-27 41-38 71-29 17 6 20 14 17 48-3 37-6 42-25 39-13-2-23 2-23 7 0 18-14 12-34-15z"/><path d="m5828 7834c-24-47-23-69 7-88 22-15 50-11 83 10 4 3-28 54-45 72-7 7-13 20-13 28 0 24-14 15-32-22z"/><path d="m5958 7513c-25-30-27-47-7-72 14-17 25-22 43-17 33 8 40 33 19 69-23 38-35 42-55 20z"/><path d="m6083 7165c-18-19-16-39 5-65 15-18 21-20 45-11 38 15 39 67 1 81-32 13-36 12-51-5z"/><path d="m6186 6853c-21-44-8-65 38-61 25 2 32 8 34 29 2 20-4 32-26 47l-29 21z"/><path d="m6286 6622c-10-16-16-78-9-88 5-6 19-14 33-17 22-5 27-1 42 33 20 48 14 88-10 68-12-10-16-10-19 0-5 13-29 16-37 4z"/><path d="m6365 6404c-19-30-20-28 16-69 35-40 49-44 49-15 0 14 5 18 18 13 14-6 15-4 5 8-7 8-11 28-10 44 2 25-2 30-30 36-27 5-35 3-48-17z"/><path d="m6438 6181c-9-11-18-30-20-43-3-21 1-23 42-23 42 0 45 2 48 30 3 19-2 33-14 42-24 18-37 16-56-6z"/><path d="m6521 5981c-19-12-27-99-10-106 25-9 74 10 76 31 4 26-49 85-66 75z"/><path d="m6567 5761c-8-40 2-71 23-71 10 0 25-3 33-6 9-3 16 3 19 18 3 13 9 31 13 41 5 12 3 17-8 17-8 0-20 7-27 15-21 25-47 18-53-14z"/><path d="m6645 5622c-14-14-4-80 15-97 11-10 21-16 23-14 1 2 11 14 21 26 16 19 17 26 5 52-12 27-50 47-64 33z"/><path d="m6698 5425c-23-31-23-33 7-61 25-23 27-23 44-6 26 24 32 59 14 77-21 22-45 18-65-10z"/><path d="m6763 5243c-43-29-20-83 34-83 22 0 39 35 35 73-4 32-33 36-69 10z"/><path d="m6813 5091c-21-27-22-71-2-71 5 0 9-7 9-15 0-22 13-18 44 14 27 28 27 28 10 65-21 43-32 44-61 7z"/><path d="m6865 4952c-10-27-5-70 10-82 17-14 20-37 5-42-12-4 16-68 29-68 5 0 11-13 14-30 10-48 97-78 97-33 0 20-20 56-37 66-12 7-11 11 4 23 17 14 17 15-4 30-13 9-23 24-23 33s-4 21-10 27c-5 5-13 27-17 48-7 34-13 39-36 40-14 1-29-4-32-12z"/></g></svg>